<svg class="main-svg" xmlns="http://www.w3.org/2000/svg" xmlns:xlink="http://www.w3.org/1999/xlink" width="700" height="500" style="" viewBox="0 0 700 500"><rect x="0" y="0" width="700" height="500" style="fill: rgb(255, 255, 255); fill-opacity: 1;"/><defs id="defs-9b8a87"><g class="clips"><clipPath id="clip9b8a87xyplot" class="plotclip"><rect width="540" height="320"/></clipPath><clipPath class="axesclip" id="clip9b8a87x"><rect x="80" y="0" width="540" height="500"/></clipPath><clipPath class="axesclip" id="clip9b8a87y"><rect x="0" y="100" width="700" height="320"/></clipPath><clipPath class="axesclip" id="clip9b8a87xy"><rect x="80" y="100" width="540" height="320"/></clipPath></g><g class="gradients"/><g class="patterns"/></defs><g class="bglayer"><rect class="bg" x="80" y="100" width="540" height="320" style="fill: rgb(229, 236, 246); fill-opacity: 1; stroke-width: 0;"/></g><g class="layer-below"><g class="imagelayer"/><g class="shapelayer"/></g><g class="cartesianlayer"><g class="subplot xy"><g class="layer-subplot"><g class="shapelayer"/><g class="imagelayer"/></g><g class="gridlayer"><g class="x"><path class="xgrid crisp" transform="translate(187.45999999999998,0)" d="M0,100v320" style="stroke: rgb(255, 255, 255); stroke-opacity: 1; stroke-width: 1px;"/><path class="xgrid crisp" transform="translate(295.46000000000004,0)" d="M0,100v320" style="stroke: rgb(255, 255, 255); stroke-opacity: 1; stroke-width: 1px;"/><path class="xgrid crisp" transform="translate(403.46,0)" d="M0,100v320" style="stroke: rgb(255, 255, 255); stroke-opacity: 1; stroke-width: 1px;"/><path class="xgrid crisp" transform="translate(511.46,0)" d="M0,100v320" style="stroke: rgb(255, 255, 255); stroke-opacity: 1; stroke-width: 1px;"/></g><g class="y"><path class="ygrid crisp" transform="translate(0,406.82)" d="M80,0h540" style="stroke: rgb(255, 255, 255); stroke-opacity: 1; stroke-width: 1px;"/><path class="ygrid crisp" transform="translate(0,324.13)" d="M80,0h540" style="stroke: rgb(255, 255, 255); stroke-opacity: 1; stroke-width: 1px;"/><path class="ygrid crisp" transform="translate(0,158.75)" d="M80,0h540" style="stroke: rgb(255, 255, 255); stroke-opacity: 1; stroke-width: 1px;"/></g></g><g class="zerolinelayer"><path class="yzl zl crisp" transform="translate(0,241.44)" d="M80,0h540" style="stroke: rgb(255, 255, 255); stroke-opacity: 1; stroke-width: 2px;"/></g><path class="xlines-below"/><path class="ylines-below"/><g class="overlines-below"/><g class="xaxislayer-below"/><g class="yaxislayer-below"/><g class="overaxes-below"/><g class="plot" transform="translate(80,100)" clip-path="url(#clip9b8a87xyplot)"><g class="scatterlayer mlayer"><g class="trace scatter traceaa2d2e" style="stroke-miterlimit: 2; opacity: 1;"><g class="fills"/><g class="errorbars"/><g class="lines"><path class="js-line" d="M0,280.01L1.08,278.18L1.62,272.17L2.16,272.16L2.7,268.03L3.78,253.5L4.32,257.65L7.56,241.62L8.1,234.78L8.64,231.67L9.18,240.22L9.72,240.44L10.26,242.99L11.88,230.91L12.42,232.47L13.5,228.76L14.04,232.8L15.66,214.47L16.2,221.32L17.28,212.99L17.82,221.67L18.9,211.38L19.44,212.09L19.98,225.1L21.06,215.89L21.6,218.75L22.68,200.27L23.22,200.57L24.84,194.89L25.38,196.11L25.92,197.08L26.46,186.62L27.54,206.88L28.08,193.33L28.62,195.72L29.16,189.45L29.7,192.92L30.24,180.44L31.32,203.6L31.86,191.68L32.4,201.24L32.94,187.35L34.56,210.34L35.1,203.04L35.64,203.72L36.18,195.4L36.72,194.28L37.26,182.28L37.8,193.71L38.34,187.45L40.5,199.66L41.04,191.9L42.12,204.84L42.66,202.29L43.2,201.35L43.74,189.06L44.28,182.01L44.82,187.44L45.36,192.52L45.9,188.73L46.44,192.45L46.98,202.97L47.52,202.77L48.06,189.41L48.6,188.03L49.14,191.42L49.68,192.15L50.22,188.3L51.3,201.3L51.84,198.01L52.38,182.22L52.92,212.06L54,185.09L54.54,202.62L55.08,182.52L55.62,190.46L56.16,185.15L56.7,196.83L57.24,192.41L57.78,202.72L58.32,198.37L58.86,200.59L59.4,182.21L59.94,190.62L60.48,202.13L61.02,195.31L61.56,201.31L62.1,198.75L63.18,206.61L63.72,193.56L64.8,203.03L65.34,188.65L65.88,191.85L66.42,189.26L66.96,187.18L67.5,192.39L68.04,186.55L68.58,188.95L69.12,187.35L69.66,194.3L70.2,188.19L70.74,194.61L71.28,196.21L71.82,194.5L72.36,194.78L72.9,202.82L73.44,211.74L73.98,194.87L74.52,189.18L75.06,196.17L75.6,196.75L76.14,192.82L76.68,185.43L77.22,201.52L77.76,200.16L78.3,179.55L79.92,197.56L80.46,194.08L81,196.98L81.54,192.05L82.08,205.34L82.62,201.16L83.16,198.15L83.7,192.64L84.24,195.56L84.78,189.6L85.32,200.27L86.94,187.76L87.48,193.41L89.1,210.66L89.64,206.85L90.18,186.71L90.72,191.65L91.26,190.86L92.88,194.79L93.42,199.41L94.5,188.07L95.04,205.21L95.58,210.93L96.12,197.6L96.66,189.44L97.2,195.29L97.74,185.92L98.28,201.67L98.82,206.13L99.36,186.3L100.44,191.58L100.98,186.59L103.14,194.41L103.68,201.66L104.76,182.55L105.3,191.24L106.38,180.4L106.92,188.93L107.46,175.47L108,179.8L108.54,170.4L109.62,189.73L110.16,176.26L110.7,171.34L111.24,176.35L111.78,186.03L112.32,175.48L113.94,195.32L114.48,186.21L116.64,202.77L117.18,188.6L118.26,197.59L118.8,184.68L119.34,189.44L119.88,184.25L120.42,188.17L120.96,181.18L121.5,182.45L122.04,182.16L122.58,185.95L123.12,185.02L123.66,186.48L124.2,190.69L124.74,183.38L125.28,191.63L125.82,186.04L126.9,186.08L127.44,190.59L127.98,175.96L128.52,178.25L129.06,179.65L129.6,181.26L130.14,179.49L130.68,185.56L131.22,179.82L131.76,178.53L132.3,181.64L132.84,195.91L133.38,194.87L133.92,182.01L134.46,186.62L135,179.4L136.08,197.38L136.62,189.45L137.7,190.88L138.24,204.46L139.32,190.21L139.86,185.05L140.94,192.47L141.48,189.25L142.56,186.93L143.1,197.92L143.64,197.54L144.18,198.84L145.8,175.61L146.34,180.31L149.04,126.51L149.58,132.94L150.12,114.93L150.66,116.68L151.2,136.94L151.74,170.45L152.28,151.54L152.82,146.57L153.36,132.95L154.44,158.53L154.98,145.66L155.52,120.83L156.06,130.52L156.6,132.1L157.14,120.05L157.68,123.39L158.22,141.27L158.76,113.82L159.3,113.87L159.84,126.56L160.92,115.43L161.46,129.19L162,124.79L162.54,141.15L163.08,128.89L163.62,147.7L165.78,117.31L166.32,122.3L166.86,121.86L167.4,123.25L167.94,136.42L168.48,134.96L169.02,128.82L169.56,131.36L170.1,120.02L170.64,137.31L171.18,118.48L171.72,137.21L172.26,123.29L172.8,129.63L173.34,125.67L173.88,112.89L174.42,133L174.96,131.2L175.5,132.17L176.04,131.1L176.58,127.35L177.12,116.06L177.66,127.97L178.2,124.77L178.74,127.29L180.36,141.21L180.9,123.05L182.52,132.47L183.06,156.74L185.76,124.49L186.3,122.68L186.84,121.11L187.38,150.43L189,116.58L189.54,113.33L190.08,110.65L190.62,121.6L191.7,101.64L192.24,116.2L192.78,113.74L193.32,121.99L194.4,107.32L194.94,110.63L195.48,136.41L196.02,130.15L196.56,108.92L197.64,124.99L198.18,114.86L198.72,131.27L199.26,99.19L200.88,111.09L201.42,116L201.96,119.14L202.5,108.52L203.58,137.54L204.12,118.06L204.66,124.61L205.2,119.56L205.74,118.69L206.28,132.17L206.82,102.84L207.36,103.46L207.9,131.69L208.98,126.95L209.52,137.3L210.06,133.71L210.6,137.92L211.68,100.57L212.22,120.38L212.76,112.58L213.3,122.24L213.84,118.05L214.38,122.99L214.92,105.22L215.46,123.09L216,129.36L216.54,126.88L217.08,137.43L217.62,132.98L218.16,107.41L218.7,109.86L219.24,108.42L219.78,106.71L220.32,108.99L220.86,119.88L221.4,100.04L222.48,137.9L223.02,126.39L224.64,99.58L225.18,121.87L225.72,112.65L226.26,141.51L226.8,104.19L227.34,113.77L227.88,123.59L228.42,111.09L228.96,113L229.5,133.87L230.04,114.11L230.58,115.46L231.12,122.03L232.2,93.63L232.74,103.5L233.82,125.71L234.36,116.89L234.9,133.45L235.44,106.44L235.98,96.93L236.52,106.85L237.06,148.32L237.6,125.26L238.68,114.15L239.22,114.25L239.76,112.66L240.84,132.35L241.38,125.21L243,102.29L243.54,105.79L244.08,131.35L244.62,109.42L245.7,100.39L246.24,102.5L246.78,130.04L247.32,116.03L247.86,89.57L248.4,109.66L248.94,92.62L249.48,103.38L250.56,129.87L251.1,108.28L252.18,96.32L252.72,96.87L253.26,122.78L253.8,117.88L254.34,135.87L255.96,116.06L256.5,122.67L257.58,81.8L258.12,102.57L259.2,125.25L259.74,106.02L260.28,114.37L260.82,96.38L261.9,116.05L262.44,115.62L262.98,104.9L263.52,112.43L264.06,108.59L264.6,112.95L265.14,89.23L265.68,91.87L266.22,120.46L266.76,115.35L267.3,102.89L267.84,127.15L268.38,109.9L268.92,135.14L269.46,109.33L270,122.15L270.54,118.39L271.08,105.29L271.62,105.74L272.16,127.56L272.7,132.9L273.24,125.41L274.32,108.22L274.86,105.26L275.4,112.82L275.94,112.69L276.48,105.93L277.02,125.77L277.56,118.5L278.1,106.13L278.64,99.63L279.18,119.07L279.72,121.68L280.26,129.97L280.8,128.66L281.34,135.83L282.42,97.35L282.96,108.51L283.5,109.73L284.04,99.1L284.58,108.19L285.12,101.82L285.66,102.91L286.2,122.67L286.74,105.41L287.28,112.83L287.82,115.51L288.36,99.48L288.9,104.81L289.44,131.7L290.52,112.31L291.06,132.21L292.14,126.4L292.68,111.41L294.3,102.24L294.84,119.05L295.38,81.43L295.92,108.18L297,91.6L297.54,105.86L298.08,145.83L298.62,122.29L299.16,112.6L299.7,122.67L300.24,121.04L300.78,108.97L301.32,95.28L301.86,104.8L302.4,105.41L302.94,112.72L303.48,110.84L304.02,131.43L304.56,143.8L305.1,133.79L305.64,137.47L306.18,116.11L306.72,118.65L307.26,128.29L308.34,101.24L308.88,116.77L309.96,101.37L310.5,131.48L311.04,117.17L311.58,124.44L312.12,120.3L312.66,109.97L313.2,90.46L313.74,96.38L314.28,86.7L315.9,134.72L316.44,103.26L317.52,83.7L318.06,110.57L319.14,97.45L319.68,107.96L320.22,99.84L320.76,136.84L321.3,127.09L321.84,127.97L322.38,142.73L322.92,142.16L323.46,107.14L324.54,117.54L325.08,80.34L327.24,117.08L327.78,86.19L328.32,110.73L328.86,90.74L330.48,128.13L331.02,77.1L331.56,76.89L332.1,127.44L333.18,98.4L333.72,118.09L334.26,129.92L334.8,110.05L335.34,103.53L335.88,104.18L336.42,113.52L337.5,96.8L338.04,104.58L338.58,110.29L339.12,126.98L339.66,133.82L340.2,114.35L340.74,113.68L341.28,114.17L341.82,127.79L342.9,80.35L343.44,107.14L343.98,124.87L344.52,120.41L345.06,133.5L345.6,138.81L346.14,131.42L347.22,100.84L347.76,110.28L348.3,116.99L348.84,110.38L349.38,94.3L349.92,117.46L351,124.65L351.54,105.11L353.16,90.16L353.7,113.66L355.32,126.12L355.86,108.95L356.4,127.85L356.94,112.88L357.48,107.99L358.02,117.09L359.1,135.18L359.64,123.58L360.18,120.39L360.72,121.78L361.26,122.13L361.8,96.75L362.88,104.18L363.42,100.18L363.96,121.24L364.5,119.53L365.04,102.46L366.12,93.75L366.66,99.84L367.74,132.41L368.28,102.12L368.82,112.07L369.36,139.15L370.44,100.01L370.98,107.92L371.52,116.74L372.06,90.6L373.14,141.53L373.68,124.23L374.22,97.49L374.76,123.22L376.38,90.15L376.92,107.68L377.46,127.17L378,124.5L378.54,119.81L379.08,104.94L379.62,123.78L380.16,130.59L380.7,107.45L382.86,90.53L383.4,105.03L383.94,104.55L384.48,101.73L385.02,124.35L385.56,94.02L386.1,106.7L386.64,97.12L387.18,110.97L387.72,104.2L388.26,100.01L388.8,117.82L389.34,97.37L389.88,101.13L390.42,90.03L391.5,120.07L392.04,96.78L392.58,123.61L393.12,110.14L393.66,117.22L394.2,102.96L395.28,114.6L395.82,100.29L396.36,80.11L396.9,94.22L397.98,123.13L398.52,100.22L399.6,119.86L400.14,107.29L400.68,113.94L401.22,93.66L402.3,117.76L402.84,116.86L403.38,124.23L403.92,116.37L404.46,130.66L405,139.17L405.54,122.32L406.08,113.32L406.62,125.04L407.16,127.79L407.7,117.14L408.78,87.11L409.32,117.13L409.86,114.15L410.4,92.54L411.48,122.67L412.02,110.91L412.56,96.36L413.1,110.93L413.64,92.45L414.18,100.76L414.72,104.32L415.26,93.59L416.34,124.99L416.88,117.57L417.42,93.6L417.96,104.22L418.5,99.49L419.04,80.03L420.66,123.11L421.2,113.42L422.28,100.06L422.82,113.26L423.36,105.86L423.9,117.6L424.44,107.01L424.98,130.53L425.52,86.64L426.06,101.09L426.6,110.35L427.14,137.39L427.68,112.51L428.22,78.9L428.76,100.63L429.3,117L429.84,112.72L430.38,119.06L431.46,96.83L432,96.55L434.16,124.53L434.7,119.59L435.78,117.19L436.32,111.15L436.86,109.44L437.4,103.81L437.94,107.55L438.48,124.6L439.02,122.41L439.56,114.73L440.1,119.38L440.64,101.99L441.72,116.33L442.26,105.94L442.8,112.79L443.34,109.56L444.42,83.22L444.96,113.36L445.5,130.89L446.04,113.39L446.58,97.31L447.12,100.42L447.66,114.16L448.74,138.58L449.28,107.83L449.82,115.9L450.36,114.48L450.9,117.06L451.98,109.83L452.52,143.53L453.6,109.81L454.14,115.72L455.22,90.42L455.76,107.96L456.3,108.84L456.84,122.6L457.38,117.94L457.92,121.86L459,127.43L459.54,99.15L460.62,96.45L461.16,123.31L461.7,142.08L462.24,140.3L462.78,112.52L463.32,115.09L463.86,73.41L464.4,79.18L464.94,94.11L466.02,139.71L466.56,115.24L467.1,161.76L467.64,139.74L468.72,102.87L469.26,119.89L469.8,103.43L470.34,121.32L470.88,117.21L471.42,100.32L472.5,110.51L473.04,114.33L474.12,143.93L474.66,119.23L475.74,94.18L476.28,113.19L476.82,110.74L477.36,122.53L477.9,106.72L478.44,123.94L478.98,125.84L479.52,116.31L480.06,119.54L480.6,105.95L481.68,98.92L482.22,104.23L482.76,112.93L483.3,107.07L483.84,115.42L484.38,96.11L485.46,130.72L486,112.85L486.54,131.35L487.08,111.27L487.62,109.45L488.16,95.76L489.24,123.12L489.78,122.99L490.32,118.77L490.86,128.82L491.4,147.58L491.94,140.28L492.48,86.15L493.56,112.98L494.1,102.74L494.64,98.06L495.18,116.57L495.72,127.03L496.26,123.89L496.8,115.68L497.88,95.65L498.42,95.6L498.96,98.95L499.5,89.66L500.58,137.23L501.12,126.22L501.66,137.74L502.2,105.1L503.28,160.32L503.82,113.77L504.9,91.89L505.44,102.69L506.52,103.12L507.06,93.37L507.6,97.01L508.14,123.57L508.68,116.78L509.22,133.66L510.3,100.1L510.84,113.88L511.38,115.96L511.92,102.91L512.46,106.14L513,85.38L514.08,106.68L514.62,86.51L515.7,115.47L516.24,103.68L516.78,96.4L517.32,105.07L517.86,138.72L518.4,113.23L519.48,121.97L520.02,95.1L521.64,117.41L522.18,101.26L523.26,113.98L523.8,99.19L524.34,96.42L524.88,120.97L525.42,123.65L525.96,98.41L526.5,100.58L527.04,133.18L527.58,103.19L528.12,109.35L528.66,102.99L529.2,96.07L529.74,103.44L530.82,122.81L531.36,103.8L531.9,110.63L532.44,87.09L532.98,89.28L533.52,118.62L534.06,118.49L534.6,135.08L536.22,106.5L536.76,119.43L538.38,86.16L538.92,93.07L539.46,105.86L540,95.81" style="vector-effect: non-scaling-stroke; fill: none; stroke: rgb(0, 100, 80); stroke-opacity: 1; stroke-width: 2px; opacity: 1;"/></g><g class="points"/><g class="text"/></g><g class="trace scatter traceeb8160" style="stroke-miterlimit: 2; opacity: 1;"><g class="fills"><g><path class="js-fill" d="M0,270.21L0.54,269.93L1.08,268.37L1.62,240.34L2.16,255.25L3.78,231.02L4.32,234.06L5.94,223.58L6.48,219.29L7.56,213.56L8.1,200.29L8.64,191.69L9.18,212.1L9.72,210.6L10.26,212.33L12.96,198.33L13.5,196.2L14.04,197.58L14.58,193.38L15.12,191.85L15.66,185.4L17.28,180.08L17.82,187.9L19.44,179.28L19.98,185.92L23.76,152.04L24.3,151.34L24.84,153.11L25.38,151.85L25.92,151.81L26.46,150.92L27.54,159.88L28.08,153.54L29.16,149.27L29.7,149.56L30.24,151.5L30.78,149.74L31.32,154.46L31.86,149.71L32.4,152.34L32.94,149.03L34.56,158.21L35.1,155.59L35.64,156.22L36.18,151.86L37.26,149.91L37.8,150.21L38.88,148.75L39.42,149.54L39.96,149.5L40.5,152.52L41.04,153.77L41.58,151.49L42.12,155.04L42.66,154.53L43.2,153.94L44.82,148.91L45.36,149.49L45.9,149.5L46.44,149.57L46.98,153.17L47.52,154.44L48.06,150.61L48.6,151.49L49.14,150.74L49.68,152.19L50.22,150.23L50.76,153.04L51.3,152.25L51.84,152.86L52.38,142.78L52.92,160.26L54,150.05L54.54,153.31L55.08,149.45L55.62,149.58L56.16,149.92L56.7,151.05L57.24,150.13L57.78,153.35L58.32,152.31L58.86,152.76L59.94,149.36L60.48,154.91L61.02,151.7L61.56,158.34L62.1,156.07L62.64,158.17L63.18,158.51L63.72,150.07L64.8,154.43L65.34,150.95L66.42,150.95L66.96,149.29L68.04,149.68L68.58,149.23L69.12,149.06L69.66,151.54L70.2,149.91L70.74,150.76L72.36,152.28L72.9,154.53L73.44,160.71L73.98,151.5L74.52,149.59L75.06,151.96L75.6,152.8L76.14,151.68L76.68,149.5L77.22,153.16L77.76,152.53L78.3,154.5L78.84,150.06L79.38,151.49L79.92,151.06L80.46,150L81,151.44L81.54,149.52L82.08,155.59L82.62,153.5L83.16,154.9L83.7,149.38L84.24,150.51L84.78,149.61L85.32,152.89L85.86,150.27L86.94,148.5L87.48,150.49L89.1,159.23L89.64,159.71L90.72,149.7L91.26,150.33L92.88,150.54L93.42,151.59L94.5,149.3L95.04,156.84L95.58,160.68L96.12,154.83L97.74,148.33L98.28,151.67L98.82,153.28L99.36,145.27L100.98,137.75L101.52,138.67L102.06,138.91L102.6,142.59L103.14,136.47L103.68,147.43L104.76,138.33L105.3,139.23L105.84,135.62L106.38,135.88L106.92,138.81L108,136.51L108.54,138.85L109.08,137.45L109.62,138.18L110.16,136.5L110.7,139.12L111.24,136.35L111.78,138.62L112.32,138.78L112.86,135.71L113.94,142.09L114.48,138.34L116.1,142.74L116.64,149.07L117.18,142.68L117.72,143.37L118.26,144.41L118.8,139.34L119.34,143.97L121.5,135.9L122.04,137.55L122.58,138.64L123.12,138.28L123.66,137.96L124.2,139.49L124.74,137.19L125.28,140.51L125.82,139.26L126.36,142.22L126.9,138.84L127.44,139.25L127.98,136.99L128.52,136.19L129.06,136.62L129.6,137.22L130.14,136.95L130.68,138.36L132.3,136.82L132.84,142.38L133.38,142.93L133.92,136.42L134.46,139.55L135,136.62L136.08,143.52L136.62,141.42L137.7,142.23L138.24,148.65L138.78,141.06L139.32,141.94L139.86,141.09L140.4,142.83L140.94,141.21L142.56,134.92L143.1,146.39L143.64,141.84L144.18,141.92L144.72,126.33L146.88,105.51L147.42,79.3L149.04,55.14L149.58,55.77L150.12,51.31L150.66,54.85L151.74,80.08L152.28,73.05L153.36,66.99L153.9,77.17L154.44,82.14L154.98,68.25L156.06,53.25L156.6,56.03L157.68,51.21L158.22,56.76L159.3,51.92L159.84,51.51L160.92,53.34L161.46,52.38L162,53.12L162.54,59.32L163.08,53.89L163.62,61.4L164.7,51.28L165.24,51.29L166.32,42.02L166.86,42.38L168.48,49.48L169.02,46.21L169.56,48.07L170.1,40.46L170.64,48.42L171.18,41.85L171.72,48.39L172.26,44.8L172.8,46.23L173.34,45.98L173.88,40.56L174.42,47.56L174.96,45.63L175.5,44.89L176.04,45.63L176.58,44.63L177.12,40.81L177.66,44.41L178.2,43.41L178.74,44.58L180.36,52.05L180.9,43.99L181.98,47.52L182.52,46.94L183.06,66.41L186.84,38.58L187.38,54.4L189,34.35L189.54,30.36L190.08,28.59L190.62,33.57L191.7,30.47L192.24,31.11L192.78,29.52L193.32,33.74L194.4,28.07L194.94,28.61L195.48,39.22L196.02,37.82L196.56,27.91L197.64,32.62L198.18,31.91L198.72,35.56L199.26,25.59L199.8,25.86L200.34,28.88L200.88,28.17L201.42,31.04L201.96,31.81L202.5,27.03L203.58,39.61L204.12,30.11L204.66,32.57L205.2,28.92L205.74,29.6L206.28,38.59L206.82,26.37L207.36,27.93L207.9,36.22L208.98,33.58L209.52,38.66L210.06,36.61L210.6,38.06L211.14,23.53L211.68,23.98L212.22,28.61L212.76,26.93L213.3,30.6L213.84,26.85L214.38,30.54L214.92,26.18L215.46,33.29L216.54,39.23L217.08,39.05L217.62,34.68L218.16,23.13L218.7,24.65L219.24,25.38L219.78,23.74L220.32,25.43L220.86,27.97L221.4,22.93L221.94,27.63L222.48,39.23L224.1,23.13L224.64,23.26L225.18,29.64L225.72,25.75L226.26,41.29L226.8,22.27L227.34,25.11L227.88,29.25L228.42,23.57L228.96,25.65L229.5,34.46L230.04,24.82L230.58,27.36L231.12,29.95L231.66,22.74L232.2,22.82L232.74,23.08L233.82,31.56L234.36,26.62L234.9,34.64L235.44,24.05L235.98,22.6L236.52,23.42L237.06,45.93L237.6,31.49L238.14,30.14L238.68,24.9L239.22,24.53L239.76,25.46L240.3,34.47L240.84,34.18L241.38,30.29L242.46,24.08L243,22.84L243.54,23.15L244.08,34.08L245.16,22.3L245.7,20.84L246.24,22.24L246.78,31.67L247.86,22.95L248.4,23.41L249.48,21.62L250.02,26.82L250.56,31.73L251.1,23.99L252.18,21.71L252.72,20.93L254.34,35.79L254.88,31.95L255.96,25.74L256.5,28.55L257.04,23.26L257.58,27.73L258.12,22.56L258.66,27.73L259.2,28.74L259.74,23.14L260.28,25.71L260.82,21.68L261.9,25.77L262.44,26.07L262.98,23.6L263.52,24.86L265.14,23.31L265.68,24.44L266.22,26.87L266.76,25.56L267.3,22.21L267.84,29.62L268.38,23.01L268.92,35.88L269.46,23L270,27.89L270.54,26.86L271.62,22.09L272.16,31.21L272.7,33.04L273.24,29.71L274.32,23.59L274.86,22.66L275.94,23.91L276.48,21.93L277.02,29.46L277.56,26.8L278.1,21.79L278.64,20.55L279.18,26.36L280.8,31.27L281.34,37.99L282.96,22.92L283.5,22.32L284.04,21.16L284.58,23.57L285.66,21L286.2,28.02L286.74,22.31L287.28,23.53L287.82,25.23L288.36,20.75L288.9,22.91L289.44,33.34L289.98,23.95L290.52,23.96L291.06,33.46L293.76,21.54L294.3,21.59L295.38,26.14L295.92,23.13L297,21.76L297.54,21.19L298.08,41.23L298.62,26.77L299.16,22.39L299.7,26.57L300.24,27.21L300.78,21.58L301.32,20.07L301.86,21.91L302.4,20.97L302.94,22.2L303.48,23.41L304.02,35.5L304.56,41.23L305.1,34.13L305.64,35.85L306.18,25.04L307.26,28.41L307.8,20.57L308.34,19.23L308.88,22.33L309.96,17.69L310.5,30.19L311.04,23.51L311.58,26.67L312.12,25.2L312.66,21.24L313.2,18.4L313.74,18.83L314.28,19.65L314.82,19.33L315.36,26.6L315.9,32.33L316.44,19.62L316.98,19.27L317.52,20.07L318.06,20.84L318.6,17.89L319.14,17.93L319.68,19.37L320.22,19.43L320.76,34.84L321.3,28.73L321.84,30.7L322.38,39.25L322.92,39.63L323.46,18.24L324.54,23.41L325.08,21.6L326.16,18.88L326.7,19.38L327.24,23.49L327.78,20.29L328.32,20.91L328.86,17.97L329.4,20.76L329.94,20.11L330.48,28.11L331.02,23.47L331.56,24.01L332.1,28.57L333.18,20.58L333.72,23.05L334.26,30.37L334.8,21.33L335.88,19.04L336.42,22.42L338.04,17.84L338.58,21.5L339.66,32.62L340.2,21.99L341.28,21.78L341.82,28.06L342.36,19.34L342.9,20.97L343.44,19.78L345.06,32.33L345.6,34.11L346.14,29.98L346.68,19.85L347.22,17.88L347.76,20.99L348.3,23.63L348.84,20.63L349.38,17.48L349.92,23.19L350.46,26.45L351,26.15L351.54,21.51L352.62,18.08L353.16,18.42L355.32,28.48L355.86,21.51L356.4,31.04L356.94,22.55L357.48,19.05L358.02,23.18L358.56,32.15L359.1,31.95L359.64,26.58L360.18,25.27L360.72,27.17L361.26,27.18L361.8,18.41L363.42,18.84L363.96,24.47L364.5,25.24L365.04,19.86L365.58,17.42L366.12,17.84L366.66,18.72L367.74,32.52L368.28,20.39L368.82,22.7L369.36,36.85L370.44,18.82L370.98,19.04L371.52,23.27L372.06,17.7L372.6,22.91L373.14,39.38L374.22,21.08L374.76,26.79L376.38,18.46L376.92,19.27L377.46,28.18L378,26.24L378.54,25.66L379.08,21.34L379.62,26.63L380.16,30.3L380.7,19.5L382.86,17.82L383.4,21.05L383.94,22.19L384.48,20.27L385.02,26.31L385.56,17.48L386.1,20.18L386.64,17.94L387.18,20.39L387.72,18.77L388.26,18.6L388.8,22.91L389.88,17.56L390.42,18.62L390.96,18.77L391.5,25.29L392.04,18.44L392.58,26.75L393.12,21.11L393.66,23.36L394.2,19.78L394.74,22L395.28,21.43L395.82,18.51L396.36,21.51L396.9,17.2L397.98,26.99L398.52,18.59L399.06,20.39L399.6,25.08L400.14,19.61L400.68,21.73L401.22,18.09L403.38,26.66L403.92,23.44L405,37.33L405.54,26.8L406.08,22.15L406.62,29.27L407.16,28.11L407.7,23.41L408.78,18.46L409.32,23.07L410.4,18.99L410.94,19.72L411.48,26.82L412.02,20.44L412.56,18.63L413.1,23.31L414.18,17.97L414.72,18.41L415.26,18.06L415.8,19.94L416.34,25.96L416.88,23.1L417.42,18.04L417.96,18.51L418.5,19.18L419.04,21.72L419.58,18.79L420.12,18.28L420.66,26.53L421.74,18.45L422.28,18.58L422.82,22.28L423.36,20.59L423.9,23.03L424.44,19.88L424.98,30.21L426.06,17.59L426.6,20.86L427.14,34.6L427.68,22.74L428.22,23.73L428.76,18.58L429.3,23.49L429.84,22.68L430.38,25.45L431.46,18.31L432,18.67L434.16,26.18L434.7,25.44L436.32,20.24L436.86,21.4L437.4,18.93L437.94,19.4L438.48,26.13L439.02,26.64L439.56,23.94L440.1,25.32L440.64,21.01L441.72,23.9L442.26,20.76L442.8,21.9L443.34,21.37L443.88,17.79L444.96,22.21L445.5,30.13L446.58,17.71L447.12,18.37L447.66,21.78L448.2,34.12L448.74,37L449.28,22.2L449.82,23.78L450.36,21.49L450.9,23.27L451.44,20.84L451.98,20.9L452.52,39.51L453.6,21.18L454.14,24L455.22,17.99L455.76,19.18L456.84,26.76L457.38,26.21L457.92,27.28L458.46,28.62L459,28.29L459.54,19.55L460.62,18.31L461.16,26.5L461.7,39.52L462.24,36.87L462.78,22.62L463.86,26.75L464.4,23.44L464.94,17.33L465.48,23.22L466.02,36.97L466.56,22.44L467.1,55.34L467.64,36.87L468.72,19.96L469.26,25.31L469.8,19.18L470.34,24.19L470.88,23.09L471.42,18.1L471.96,20.71L472.5,20.33L473.04,21.07L474.12,38.49L474.66,23.95L475.2,18.15L475.74,18.96L476.28,20.91L476.82,18.9L477.36,25.47L477.9,18.4L478.44,25.11L478.98,27.28L479.52,22.18L480.06,23.8L480.6,18.86L481.68,17.78L482.22,20.23L482.76,20.91L483.3,18.24L483.84,23.07L484.38,17.1L485.46,31.9L486,21.14L486.54,31.64L487.08,22.18L488.16,17.35L488.7,22.1L489.78,25.62L490.32,22.94L490.86,27.6L491.4,40.7L491.94,36.21L492.48,17.82L493.02,16.6L493.56,21.03L494.1,18.16L494.64,18.51L495.18,22.26L495.72,27.11L496.26,24.98L497.88,17.6L498.42,17.81L498.96,17.88L499.5,16.85L500.58,33.42L501.12,27.53L501.66,33.18L502.2,19.43L503.28,52.43L503.82,21L504.36,17.04L504.9,18.02L505.44,18.24L506.52,17.77L507.06,16.18L507.6,16L508.14,25.05L508.68,21.81L509.22,31.25L510.3,16.77L510.84,20.36L511.38,22.53L511.92,17.96L513,19.02L513.54,18.8L514.08,18.45L514.62,16.99L515.7,22.53L516.24,17.22L516.78,16.78L517.32,19.57L517.86,35.52L518.4,20.76L519.48,25.85L520.02,18.6L521.1,17.46L521.64,21.66L522.18,18.64L522.72,19.08L523.26,20.28L524.34,16.75L524.88,23.15L525.42,25.25L525.96,18.37L526.5,16.23L527.04,31.21L527.58,17.69L528.12,20.03L528.66,17.9L529.74,17.44L530.28,19.18L530.82,25.71L531.36,17.12L532.44,19.85L532.98,17.44L534.6,36.15L535.14,25.43L535.68,25.84L536.22,18.65L536.76,23.91L537.3,17.36L537.84,16.7L538.38,17.62L538.92,16.61L539.46,19.09L540,17.45L540,174.17L539.46,192.64L538.92,169.52L538.38,154.7L537.84,162.8L536.76,214.94L536.22,194.35L535.14,222.8L534.6,234L534.06,212.42L533.52,212.9L532.98,161.11L532.44,154.33L531.9,202.28L531.36,190.48L530.82,219.91L529.2,174.93L528.66,188.09L528.12,198.66L527.58,188.68L527.04,235.15L526.5,184.92L525.96,178.46L525.42,222.06L524.88,218.79L524.34,176.09L523.8,180.78L523.26,207.67L522.18,183.88L521.64,213.17L520.02,171.6L519.48,218.08L518.4,205.69L517.86,241.92L516.78,176.01L516.24,190.14L515.7,208.42L515.16,205.3L514.62,156.04L514.08,194.92L513.54,185.01L513,151.73L512.46,193.43L511.92,187.86L511.38,209.4L510.84,207.41L510.3,183.44L509.22,236.07L508.68,211.75L508.14,222.09L507.6,178.03L507.06,170.56L506.52,188.48L505.44,187.13L504.9,165.76L503.82,206.54L503.28,268.22L502.74,259.3L502.2,190.77L501.66,242.31L501.12,224.91L500.58,241.04L500.04,228.5L499.5,162.46L498.96,180.01L498.42,173.39L497.88,173.7L497.34,180.58L496.8,208.66L495.72,226.95L495.18,210.89L494.64,177.62L494.1,187.31L493.56,204.93L492.48,154.47L491.94,244.35L491.4,254.47L490.86,230.05L490.32,214.61L489.78,220.35L489.24,221.05L488.7,211.13L488.16,174.17L486.54,231.06L486,204.56L485.46,229.54L484.92,211.74L484.38,175.12L483.84,207.77L483.3,195.9L482.76,204.95L481.68,180.05L481.14,187.87L480.6,193.04L480.06,215.28L479.52,210.45L478.98,224.41L478.44,222.77L477.9,195.05L477.36,219.58L476.82,202.59L476.28,205.46L475.74,169.4L474.66,214.51L474.12,249.37L472.5,200.68L471.96,199.57L471.42,182.54L470.88,211.33L470.34,218.46L469.8,187.67L469.26,214.47L468.72,185.78L468.18,193.95L467.64,242.62L467.1,268.19L466.56,208.04L466.02,242.44L465.48,211.44L463.86,120.06L463.32,205.57L462.78,202.43L462.24,243.74L461.7,244.63L461.16,220.12L460.62,174.58L460.08,174.81L459.54,178.75L459,226.57L458.46,222.77L457.92,216.44L457.38,209.66L456.84,218.44L455.22,162.86L454.68,166.07L454.14,207.44L453.6,198.44L453.06,223.5L452.52,247.55L451.98,198.75L451.44,199.66L450.9,210.85L450.36,207.47L449.82,208.01L449.28,193.46L448.2,242.2L447.66,206.54L446.58,176.91L446.04,204.67L445.5,231.65L444.96,204.52L444.42,145.96L443.88,176.69L442.8,203.67L442.26,191.13L441.72,208.75L441.18,205.4L440.64,182.97L440.1,213.45L439.56,205.52L439.02,218.18L438.48,223.07L437.94,195.7L437.4,188.7L436.86,197.49L435.78,211.07L435.24,210.93L434.7,213.74L434.16,222.88L433.62,213.7L433.08,210.35L432.54,191.94L432,174.43L431.46,175.36L430.92,189.58L430.38,212.68L429.84,202.76L429.3,210.51L428.76,182.69L428.22,134.07L427.68,202.28L427.14,240.17L426.6,199.84L425.52,154.01L424.98,230.86L424.44,194.14L423.9,212.18L423.36,191.14L422.82,204.25L422.28,181.54L421.74,182.21L421.2,204.58L420.66,219.69L420.12,190.62L419.58,180.93L419.04,138.34L417.96,189.93L417.42,169.16L416.34,224.02L415.8,192.94L415.26,169.13L414.72,190.24L414.18,183.54L413.64,165.58L413.1,198.56L412.56,174.1L411.48,218.52L410.94,185.95L410.4,166.08L409.86,206.53L409.32,211.19L408.78,155.76L407.16,227.47L406.62,220.8L406.08,204.48L405.54,217.83L405,241.02L404.46,231.19L403.92,209.3L403.38,221.8L401.76,192.34L401.22,169.23L400.68,206.15L400.14,194.97L399.6,214.64L398.52,181.85L397.98,219.27L396.36,138.72L395.82,182.07L395.28,207.76L394.74,205.55L394.2,186.14L393.66,211.07L393.12,199.17L392.58,220.47L392.04,175.12L391.5,214.85L390.96,181.46L390.42,161.44L389.88,184.7L389.34,177.14L388.8,212.73L388.26,181.42L387.72,189.62L387.18,201.55L386.64,176.29L386.1,193.22L385.56,170.55L385.02,222.4L384.48,183.19L383.94,186.91L383.4,189.02L382.86,163.24L382.32,168.03L381.78,171.9L380.16,230.89L379.62,220.94L379.08,188.55L378.54,213.95L377.46,226.16L376.92,196.08L376.38,161.83L375.84,200.65L375.3,205.63L374.76,219.66L374.22,173.9L373.68,218.61L373.14,243.69L372.6,212.77L372.06,163.51L371.52,210.21L370.44,181.21L369.9,204.73L369.36,241.46L368.82,201.43L368.28,183.85L367.74,232.31L367.2,227.94L366.66,180.95L366.12,169.67L365.58,177.65L365.04,185.06L364.5,213.83L363.96,218.01L363.42,181.52L362.88,189.82L362.34,180.74L361.8,175.08L361.26,217.08L360.18,215.51L359.64,220.58L359.1,238.41L358.56,237.05L358.02,211.01L357.48,196.93L356.94,203.21L356.4,224.67L355.86,196.39L355.32,223.75L354.78,220.1L354.24,212.62L353.7,205.23L353.16,161.9L351.54,188.71L351,223.15L350.46,222.57L349.92,211.72L349.38,171.12L348.84,200.13L348.3,210.34L347.76,199.57L347.22,183.81L346.68,194.14L345.6,243.52L345.06,234.67L344.52,216.12L343.98,223.7L342.9,139.74L342.36,195.85L341.82,227.53L341.28,206.55L340.74,205.14L340.2,206.72L339.66,235.02L339.12,226.08L338.58,199.08L337.5,174.65L336.96,181.74L336.42,204.63L335.88,189.33L335.34,187.62L334.8,198.76L334.26,229.47L333.72,213.14L333.18,176.22L332.64,197.54L332.1,226.31L331.56,129.77L331.02,130.74L330.48,228.16L328.86,163.51L328.32,200.54L327.78,152.09L327.24,210.67L325.08,139.08L324.54,211.67L323.46,196.03L322.92,244.69L322.38,246.2L321.84,225.23L321.3,225.44L320.76,238.84L320.22,180.24L319.68,196.54L319.14,176.97L318.6,177.06L318.06,200.3L317.52,147.32L316.98,154.63L316.44,186.89L315.9,237.1L315.36,222.09L314.82,190L314.28,153.75L313.74,173.94L313.2,162.53L312.66,198.7L311.58,222.2L311.04,210.82L310.5,232.76L309.96,185.05L308.88,211.21L308.34,183.26L307.26,228.17L306.72,211.26L306.18,207.18L305.64,239.1L305.1,233.46L304.56,246.37L303.48,198.27L302.94,203.24L302.4,189.84L301.86,187.69L301.32,170.49L299.7,218.78L299.16,202.82L298.08,250.42L297.54,190.53L297,161.44L296.46,174.78L295.92,193.23L295.38,136.72L294.84,212.15L294.3,182.9L293.76,191.01L293.22,191.29L292.68,198.63L291.6,226.79L291.06,230.95L290.52,200.67L289.98,200.73L289.44,230.05L288.36,178.21L287.82,205.8L287.28,202.14L286.74,188.51L286.2,217.32L285.66,184.83L285.12,181.7L284.58,192.82L284.04,177.05L283.5,197.15L282.96,194.11L282.42,171.61L281.34,233.67L280.8,226.05L280.26,229.08L279.72,215.32L279.18,211.77L278.64,178.72L277.02,222.09L276.48,189.93L275.4,202.09L274.86,187.87L273.78,201.56L273.24,221.11L272.7,232.76L272.16,223.91L271.08,188.06L270.54,209.93L270,216.41L269.46,195.65L268.92,234.39L268.38,196.79L267.84,224.69L267.3,183.57L266.22,214.04L265.68,159.3L265.14,155.14L264.6,201.45L264.06,192.97L263.52,200.01L262.98,186.21L262.44,205.16L261.36,206.15L260.82,171.08L260.28,203.03L259.74,188.9L259.2,221.76L258.66,209.26L258.12,182.58L257.58,135.88L257.04,180.23L256.5,216.8L255.96,206.37L255.42,205.95L254.34,235.96L253.8,209.75L253.26,217.03L252.72,172.81L252.18,170.92L251.64,184.23L251.1,192.58L250.56,228.01L248.94,162.8L248.4,195.91L247.86,156.18L247.32,206.07L246.78,228.41L246.24,182.77L245.7,179.94L245.16,191L244.62,195.2L244.08,228.62L243,181.73L242.46,193.47L241.92,198.22L241.38,220.13L240.84,230.52L240.3,229.55L239.76,199.86L238.14,212.75L237.6,219.02L237.06,250.71L236.52,190.28L235.98,171.25L235.44,188.82L234.9,232.27L234.36,207.16L233.82,219.87L233.28,216.22L232.74,183.92L232.2,164.44L231.66,170.96L231.12,214.1L230.04,203.39L229.5,233.27L228.42,198.61L227.88,217.92L226.8,186.1L226.26,241.74L225.72,199.55L225.18,214.1L224.64,175.9L224.1,183.82L223.56,206.12L222.48,236.58L221.94,213.19L221.4,177.16L220.86,211.78L219.78,189.68L219.24,191.46L218.7,195.07L218.16,191.69L217.08,235.8L216.54,214.52L216,222.27L215.46,212.9L214.92,184.27L214.38,215.45L213.84,209.25L213.3,213.89L212.76,198.23L212.22,212.15L211.68,177.17L211.14,185.88L210.6,237.79L210.06,230.8L209.52,235.94L208.98,220.33L208.44,221.9L207.9,227.16L207.36,178.99L206.82,179.31L206.28,225.75L205.74,207.78L205.2,210.2L204.66,216.66L204.12,206.01L203.58,235.46L202.5,190.02L201.96,206.48L199.8,185.8L199.26,172.78L198.72,226.97L198.18,197.81L197.64,217.36L197.1,214.42L196.56,189.93L195.48,233.6L194.94,192.65L194.4,186.56L193.86,200.3L193.32,210.25L192.78,197.96L192.24,201.29L191.7,172.81L190.62,209.62L190.08,192.7L189,198.8L188.46,234.99L187.92,221.62L187.38,246.46L186.3,202.68L185.76,205.29L184.14,229.21L183.6,236.42L183.06,247.08L182.52,217.99L181.44,211.35L180.9,202.1L180.36,230.37L179.82,220.38L179.28,221.31L178.2,206.14L177.66,211.53L177.12,191.3L176.58,210.06L175.5,219.46L174.96,216.77L174.42,218.43L173.88,185.22L172.8,213.03L172.26,201.79L171.72,226.04L171.18,195.12L170.64,226.21L170.1,199.58L169.56,214.65L169.02,211.44L168.48,220.43L167.94,223.9L167.4,201.98L166.86,201.33L166.32,202.59L165.24,184.14L164.7,198.67L163.62,233.99L163.08,203.89L162.54,222.98L162,196.45L161.46,206L160.92,177.52L159.84,201.6L159.3,175.81L158.76,175.5L158.22,225.77L157.14,188.81L156.6,208.17L156.06,207.79L155.52,186.99L154.44,234.91L153.9,229.56L153.36,198.92L152.82,222.48L152.28,230.02L151.74,260.82L150.66,178.51L150.12,178.55L149.58,210.1L149.04,197.89L148.5,202.06L147.96,230.31L147.42,219.79L146.88,228.93L146.34,247.98L145.8,238.55L144.72,244.23L144.18,255.76L143.1,249.45L142.56,238.94L142.02,235.45L141.48,239.33L140.94,243.72L140.4,239.38L139.86,229.02L139.32,238.48L138.78,241.77L138.24,260.26L137.16,237.91L136.62,237.47L136.08,251.23L135.54,239.12L135,222.19L134.46,233.7L133.92,227.61L133.38,246.81L132.84,249.45L132.3,226.46L131.76,219.33L131.22,222.2L130.68,232.75L130.14,222.03L129.6,225.29L129.06,222.68L127.98,214.92L127.44,241.93L126.36,230.6L125.82,232.83L125.28,242.75L124.74,229.57L124.2,241.9L123.66,234.99L123.12,231.76L122.58,233.26L122.04,226.77L121.5,229.01L120.96,225L120.42,237.93L119.88,226.91L119.34,234.9L118.8,230.02L118.26,250.78L117.72,244.1L117.18,234.52L116.64,256.48L116.1,248.47L115.56,241.19L115.02,242.25L114.48,234.09L113.94,248.55L113.4,242.72L112.32,212.17L111.78,233.44L110.7,203.56L110.16,216.02L109.62,241.29L109.08,233.06L108.54,201.94L108,223.09L107.46,213.91L106.92,239.04L106.38,224.92L105.84,225.61L105.3,243.25L104.76,226.76L104.22,238.57L103.68,255.9L103.14,252.35L102.6,240.01L102.06,237.78L101.52,239.41L100.98,235.44L100.44,242.68L99.36,227.33L98.82,258.97L98.28,251.67L97.74,223.52L97.2,240.07L96.66,227.09L95.58,261.19L95.04,253.59L94.5,226.84L93.96,236.41L93.42,247.23L92.34,238.63L91.8,234.16L91.26,231.38L90.72,233.61L90.18,222.69L89.64,253.99L89.1,262.09L88.56,255.92L88.02,250.51L87.48,236.32L86.94,227.03L86.4,232.99L85.32,247.65L84.78,229.58L84.24,240.62L83.7,235.91L82.08,255.09L81.54,234.57L81,242.53L80.46,238.16L79.92,244.07L79.38,241.46L78.84,230.75L78.3,204.6L77.22,249.88L76.68,221.36L75.6,240.71L75.06,240.37L74.52,228.76L73.98,238.24L73.44,262.77L72.9,251.12L72.36,237.27L71.82,237.78L71.28,240.8L70.74,238.46L70.2,226.48L69.66,237.07L69.12,225.63L68.58,228.67L68.04,223.41L67.5,235.21L66.96,225.07L65.88,232.86L65.34,226.35L64.8,251.63L64.26,245.53L63.72,237.04L63.18,254.7L62.64,250.98L62.1,241.43L61.56,244.29L61.02,238.91L60.48,249.36L59.94,231.88L59.4,214.36L58.86,248.42L58.32,244.43L57.78,252.08L57.24,234.7L56.7,242.6L56.16,220.39L55.62,231.34L55.08,215.58L54.54,251.94L54,220.12L53.46,250.35L52.92,263.86L52.38,221.66L51.3,250.34L50.76,242.99L50.22,226.37L49.68,232.1L49.14,232.11L48.6,224.58L48.06,228.21L46.98,252.77L46.44,235.34L45.9,227.95L45.36,235.55L44.28,213.75L43.74,225.39L42.66,250.04L42.12,254.64L41.58,247.75L41.04,230.02L40.5,246.79L39.96,239.84L39.42,231.15L38.88,233.66L38.34,225.99L37.8,237.21L37.26,214.66L36.18,238.94L35.64,251.22L35.1,250.49L34.56,262.47L33.48,245.97L32.94,225.67L32.4,250.14L31.86,233.66L31.32,252.75L30.78,234.91L30.24,209.38L29.7,236.27L29.16,229.64L28.62,240.46L28.08,233.13L27.54,253.89L26.46,222.31L25.92,242.34L24.84,236.67L24.3,241.8L23.76,242.9L23.22,246.68L22.14,243.14L21.6,264.01L21.06,255.8L20.52,260.64L19.98,264.27L19.44,244.9L18.9,240.93L18.36,249.06L17.82,255.44L17.28,245.9L16.2,258.65L15.66,243.53L14.04,268.02L13.5,261.32L12.96,260.89L12.42,264.53L11.88,261.03L11.34,265.51L10.8,264.54L10.26,273.66L9.18,268.33L8.64,271.65L8.1,269.26L7.56,269.68L7.02,275.13L6.48,272.66L5.94,274.54L5.4,274.67L4.86,278.75L4.32,281.23L3.78,275.98L1.62,304L1.08,287.98L0.54,287.13L0,289.8Z" style="fill: rgb(0, 100, 80); fill-opacity: 0.2; stroke-width: 0;"/></g></g><g class="errorbars"/><g class="lines"><path class="js-line" d="M0,270.21L0.54,269.93L1.08,268.37L1.62,240.34L2.16,255.25L3.78,231.02L4.32,234.06L5.94,223.58L6.48,219.29L7.56,213.56L8.1,200.29L8.64,191.69L9.18,212.1L9.72,210.6L10.26,212.33L12.96,198.33L13.5,196.2L14.04,197.58L14.58,193.38L15.12,191.85L15.66,185.4L17.28,180.08L17.82,187.9L19.44,179.28L19.98,185.92L23.76,152.04L24.3,151.34L24.84,153.11L25.38,151.85L25.92,151.81L26.46,150.92L27.54,159.88L28.08,153.54L29.16,149.27L29.7,149.56L30.24,151.5L30.78,149.74L31.32,154.46L31.86,149.71L32.4,152.34L32.94,149.03L34.56,158.21L35.1,155.59L35.64,156.22L36.18,151.86L37.26,149.91L37.8,150.21L38.88,148.75L39.42,149.54L39.96,149.5L40.5,152.52L41.04,153.77L41.58,151.49L42.12,155.04L42.66,154.53L43.2,153.94L44.82,148.91L45.36,149.49L45.9,149.5L46.44,149.57L46.98,153.17L47.52,154.44L48.06,150.61L48.6,151.49L49.14,150.74L49.68,152.19L50.22,150.23L50.76,153.04L51.3,152.25L51.84,152.86L52.38,142.78L52.92,160.26L54,150.05L54.54,153.31L55.08,149.45L55.62,149.58L56.16,149.92L56.7,151.05L57.24,150.13L57.78,153.35L58.32,152.31L58.86,152.76L59.94,149.36L60.48,154.91L61.02,151.7L61.56,158.34L62.1,156.07L62.64,158.17L63.18,158.51L63.72,150.07L64.8,154.43L65.34,150.95L66.42,150.95L66.96,149.29L68.04,149.68L68.58,149.23L69.12,149.06L69.66,151.54L70.2,149.91L70.74,150.76L72.36,152.28L72.9,154.53L73.44,160.71L73.98,151.5L74.52,149.59L75.06,151.96L75.6,152.8L76.14,151.68L76.68,149.5L77.22,153.16L77.76,152.53L78.3,154.5L78.84,150.06L79.38,151.49L79.92,151.06L80.46,150L81,151.44L81.54,149.52L82.08,155.59L82.62,153.5L83.16,154.9L83.7,149.38L84.24,150.51L84.78,149.61L85.32,152.89L85.86,150.27L86.94,148.5L87.48,150.49L89.1,159.23L89.64,159.71L90.72,149.7L91.26,150.33L92.88,150.54L93.42,151.59L94.5,149.3L95.04,156.84L95.58,160.68L96.12,154.83L97.74,148.33L98.28,151.67L98.82,153.28L99.36,145.27L100.98,137.75L101.52,138.67L102.06,138.91L102.6,142.59L103.14,136.47L103.68,147.43L104.76,138.33L105.3,139.23L105.84,135.62L106.38,135.88L106.92,138.81L108,136.51L108.54,138.85L109.08,137.45L109.62,138.18L110.16,136.5L110.7,139.12L111.24,136.35L111.78,138.62L112.32,138.78L112.86,135.71L113.94,142.09L114.48,138.34L116.1,142.74L116.64,149.07L117.18,142.68L117.72,143.37L118.26,144.41L118.8,139.34L119.34,143.97L121.5,135.9L122.04,137.55L122.58,138.64L123.12,138.28L123.66,137.96L124.2,139.49L124.74,137.19L125.28,140.51L125.82,139.26L126.36,142.22L126.9,138.84L127.44,139.25L127.98,136.99L128.52,136.19L129.06,136.62L129.6,137.22L130.14,136.95L130.68,138.36L132.3,136.82L132.84,142.38L133.38,142.93L133.92,136.42L134.46,139.55L135,136.62L136.08,143.52L136.62,141.42L137.7,142.23L138.24,148.65L138.78,141.06L139.32,141.94L139.86,141.09L140.4,142.83L140.94,141.21L142.56,134.92L143.1,146.39L143.64,141.84L144.18,141.92L144.72,126.33L146.88,105.51L147.42,79.3L149.04,55.14L149.58,55.77L150.12,51.31L150.66,54.85L151.74,80.08L152.28,73.05L153.36,66.99L153.9,77.17L154.44,82.14L154.98,68.25L156.06,53.25L156.6,56.03L157.68,51.21L158.22,56.76L159.3,51.92L159.84,51.51L160.92,53.34L161.46,52.38L162,53.12L162.54,59.32L163.08,53.89L163.62,61.4L164.7,51.28L165.24,51.29L166.32,42.02L166.86,42.38L168.48,49.48L169.02,46.21L169.56,48.07L170.1,40.46L170.64,48.42L171.18,41.85L171.72,48.39L172.26,44.8L172.8,46.23L173.34,45.98L173.88,40.56L174.42,47.56L174.96,45.63L175.5,44.89L176.04,45.63L176.58,44.63L177.12,40.81L177.66,44.41L178.2,43.41L178.74,44.58L180.36,52.05L180.9,43.99L181.98,47.52L182.52,46.94L183.06,66.41L186.84,38.58L187.38,54.4L189,34.35L189.54,30.36L190.08,28.59L190.62,33.57L191.7,30.47L192.24,31.11L192.78,29.52L193.32,33.74L194.4,28.07L194.94,28.61L195.48,39.22L196.02,37.82L196.56,27.91L197.64,32.62L198.18,31.91L198.72,35.56L199.26,25.59L199.8,25.86L200.34,28.88L200.88,28.17L201.42,31.04L201.96,31.81L202.5,27.03L203.58,39.61L204.12,30.11L204.66,32.57L205.2,28.92L205.74,29.6L206.28,38.59L206.82,26.37L207.36,27.93L207.9,36.22L208.98,33.58L209.52,38.66L210.06,36.61L210.6,38.06L211.14,23.53L211.68,23.98L212.22,28.61L212.76,26.93L213.3,30.6L213.84,26.85L214.38,30.54L214.92,26.18L215.46,33.29L216.54,39.23L217.08,39.05L217.62,34.68L218.16,23.13L218.7,24.65L219.24,25.38L219.78,23.74L220.32,25.43L220.86,27.97L221.4,22.93L221.94,27.63L222.48,39.23L224.1,23.13L224.64,23.26L225.18,29.64L225.72,25.75L226.26,41.29L226.8,22.27L227.34,25.11L227.88,29.25L228.42,23.57L228.96,25.65L229.5,34.46L230.04,24.82L230.58,27.36L231.12,29.95L231.66,22.74L232.2,22.82L232.74,23.08L233.82,31.56L234.36,26.62L234.9,34.64L235.44,24.05L235.98,22.6L236.52,23.42L237.06,45.93L237.6,31.49L238.14,30.14L238.68,24.9L239.22,24.53L239.76,25.46L240.3,34.47L240.84,34.18L241.38,30.29L242.46,24.08L243,22.84L243.54,23.15L244.08,34.08L245.16,22.3L245.7,20.84L246.24,22.24L246.78,31.67L247.86,22.95L248.4,23.41L249.48,21.62L250.02,26.82L250.56,31.73L251.1,23.99L252.18,21.71L252.72,20.93L254.34,35.79L254.88,31.95L255.96,25.74L256.5,28.55L257.04,23.26L257.58,27.73L258.12,22.56L258.66,27.73L259.2,28.74L259.74,23.14L260.28,25.71L260.82,21.68L261.9,25.77L262.44,26.07L262.98,23.6L263.52,24.86L265.14,23.31L265.68,24.44L266.22,26.87L266.76,25.56L267.3,22.21L267.84,29.62L268.38,23.01L268.92,35.88L269.46,23L270,27.89L270.54,26.86L271.62,22.09L272.16,31.21L272.7,33.04L273.24,29.71L274.32,23.59L274.86,22.66L275.94,23.91L276.48,21.93L277.02,29.46L277.56,26.8L278.1,21.79L278.64,20.55L279.18,26.36L280.8,31.27L281.34,37.99L282.96,22.92L283.5,22.32L284.04,21.16L284.58,23.57L285.66,21L286.2,28.02L286.74,22.31L287.28,23.53L287.82,25.23L288.36,20.75L288.9,22.91L289.44,33.34L289.98,23.95L290.52,23.96L291.06,33.46L293.76,21.54L294.3,21.59L295.38,26.14L295.92,23.13L297,21.76L297.54,21.19L298.08,41.23L298.62,26.77L299.16,22.39L299.7,26.57L300.24,27.21L300.78,21.58L301.32,20.07L301.86,21.91L302.4,20.97L302.94,22.2L303.48,23.41L304.02,35.5L304.56,41.23L305.1,34.13L305.64,35.85L306.18,25.04L307.26,28.41L307.8,20.57L308.34,19.23L308.88,22.33L309.96,17.69L310.5,30.19L311.04,23.51L311.58,26.67L312.12,25.2L312.66,21.24L313.2,18.4L313.74,18.83L314.28,19.65L314.82,19.33L315.36,26.6L315.9,32.33L316.44,19.62L316.98,19.27L317.52,20.07L318.06,20.84L318.6,17.89L319.14,17.93L319.68,19.37L320.22,19.43L320.76,34.84L321.3,28.73L321.84,30.7L322.38,39.25L322.92,39.63L323.46,18.24L324.54,23.41L325.08,21.6L326.16,18.88L326.7,19.38L327.24,23.49L327.78,20.29L328.32,20.91L328.86,17.97L329.4,20.76L329.94,20.11L330.48,28.11L331.02,23.47L331.56,24.01L332.1,28.57L333.18,20.58L333.72,23.05L334.26,30.37L334.8,21.33L335.88,19.04L336.42,22.42L338.04,17.84L338.58,21.5L339.66,32.62L340.2,21.99L341.28,21.78L341.82,28.06L342.36,19.34L342.9,20.97L343.44,19.78L345.06,32.33L345.6,34.11L346.14,29.98L346.68,19.85L347.22,17.88L347.76,20.99L348.3,23.63L348.84,20.63L349.38,17.48L349.92,23.19L350.46,26.45L351,26.15L351.54,21.51L352.62,18.08L353.16,18.42L355.32,28.48L355.86,21.51L356.4,31.04L356.94,22.55L357.48,19.05L358.02,23.18L358.56,32.15L359.1,31.95L359.64,26.58L360.18,25.27L360.72,27.17L361.26,27.18L361.8,18.41L363.42,18.84L363.96,24.47L364.5,25.24L365.04,19.86L365.58,17.42L366.12,17.84L366.66,18.72L367.74,32.52L368.28,20.39L368.82,22.7L369.36,36.85L370.44,18.82L370.98,19.04L371.52,23.27L372.06,17.7L372.6,22.91L373.14,39.38L374.22,21.08L374.76,26.79L376.38,18.46L376.92,19.27L377.46,28.18L378,26.24L378.54,25.66L379.08,21.34L379.62,26.63L380.16,30.3L380.7,19.5L382.86,17.82L383.4,21.05L383.94,22.19L384.48,20.27L385.02,26.31L385.56,17.48L386.1,20.18L386.64,17.94L387.18,20.39L387.72,18.77L388.26,18.6L388.8,22.91L389.88,17.56L390.42,18.62L390.96,18.77L391.5,25.29L392.04,18.44L392.58,26.75L393.12,21.11L393.66,23.36L394.2,19.78L394.74,22L395.28,21.43L395.82,18.51L396.36,21.51L396.9,17.2L397.98,26.99L398.52,18.59L399.06,20.39L399.6,25.08L400.14,19.61L400.68,21.73L401.22,18.09L403.38,26.66L403.92,23.44L405,37.33L405.54,26.8L406.08,22.15L406.62,29.27L407.16,28.11L407.7,23.41L408.78,18.46L409.32,23.07L410.4,18.99L410.94,19.72L411.48,26.82L412.02,20.44L412.56,18.63L413.1,23.31L414.18,17.97L414.72,18.41L415.26,18.06L415.8,19.94L416.34,25.96L416.88,23.1L417.42,18.04L417.96,18.51L418.5,19.18L419.04,21.72L419.58,18.79L420.12,18.28L420.66,26.53L421.74,18.45L422.28,18.58L422.82,22.28L423.36,20.59L423.9,23.03L424.44,19.88L424.98,30.21L426.06,17.59L426.6,20.86L427.14,34.6L427.68,22.74L428.22,23.73L428.76,18.58L429.3,23.49L429.84,22.68L430.38,25.45L431.46,18.31L432,18.67L434.16,26.18L434.7,25.44L436.32,20.24L436.86,21.4L437.4,18.93L437.94,19.4L438.48,26.13L439.02,26.64L439.56,23.94L440.1,25.32L440.64,21.01L441.72,23.9L442.26,20.76L442.8,21.9L443.34,21.37L443.88,17.79L444.96,22.21L445.5,30.13L446.58,17.71L447.12,18.37L447.66,21.78L448.2,34.12L448.74,37L449.28,22.2L449.82,23.78L450.36,21.49L450.9,23.27L451.44,20.84L451.98,20.9L452.52,39.51L453.6,21.18L454.14,24L455.22,17.99L455.76,19.18L456.84,26.76L457.38,26.21L457.92,27.28L458.46,28.62L459,28.29L459.54,19.55L460.62,18.31L461.16,26.5L461.7,39.52L462.24,36.87L462.78,22.62L463.86,26.75L464.4,23.44L464.94,17.33L465.48,23.22L466.02,36.97L466.56,22.44L467.1,55.34L467.64,36.87L468.72,19.96L469.26,25.31L469.8,19.18L470.34,24.19L470.88,23.09L471.42,18.1L471.96,20.71L472.5,20.33L473.04,21.07L474.12,38.49L474.66,23.95L475.2,18.15L475.74,18.96L476.28,20.91L476.82,18.9L477.36,25.47L477.9,18.4L478.44,25.11L478.98,27.28L479.52,22.18L480.06,23.8L480.6,18.86L481.68,17.78L482.22,20.23L482.76,20.91L483.3,18.24L483.84,23.07L484.38,17.1L485.46,31.9L486,21.14L486.54,31.64L487.08,22.18L488.16,17.35L488.7,22.1L489.78,25.62L490.32,22.94L490.86,27.6L491.4,40.7L491.94,36.21L492.48,17.82L493.02,16.6L493.56,21.03L494.1,18.16L494.64,18.51L495.18,22.26L495.72,27.11L496.26,24.98L497.88,17.6L498.42,17.81L498.96,17.88L499.5,16.85L500.58,33.42L501.12,27.53L501.66,33.18L502.2,19.43L503.28,52.43L503.82,21L504.36,17.04L504.9,18.02L505.44,18.24L506.52,17.77L507.06,16.18L507.6,16L508.14,25.05L508.68,21.81L509.22,31.25L510.3,16.77L510.84,20.36L511.38,22.53L511.92,17.96L513,19.02L513.54,18.8L514.08,18.45L514.62,16.99L515.7,22.53L516.24,17.22L516.78,16.78L517.32,19.57L517.86,35.52L518.4,20.76L519.48,25.85L520.02,18.6L521.1,17.46L521.64,21.66L522.18,18.64L522.72,19.08L523.26,20.28L524.34,16.75L524.88,23.15L525.42,25.25L525.96,18.37L526.5,16.23L527.04,31.21L527.58,17.69L528.12,20.03L528.66,17.9L529.74,17.44L530.28,19.18L530.82,25.71L531.36,17.12L532.44,19.85L532.98,17.44L534.6,36.15L535.14,25.43L535.68,25.84L536.22,18.65L536.76,23.91L537.3,17.36L537.84,16.7L538.38,17.62L538.92,16.61L539.46,19.09L540,17.45L540,174.17L539.46,192.64L538.92,169.52L538.38,154.7L537.84,162.8L536.76,214.94L536.22,194.35L535.14,222.8L534.6,234L534.06,212.42L533.52,212.9L532.98,161.11L532.44,154.33L531.9,202.28L531.36,190.48L530.82,219.91L529.2,174.93L528.66,188.09L528.12,198.66L527.58,188.68L527.04,235.15L526.5,184.92L525.96,178.46L525.42,222.06L524.88,218.79L524.34,176.09L523.8,180.78L523.26,207.67L522.18,183.88L521.64,213.17L520.02,171.6L519.48,218.08L518.4,205.69L517.86,241.92L516.78,176.01L516.24,190.14L515.7,208.42L515.16,205.3L514.62,156.04L514.08,194.92L513.54,185.01L513,151.73L512.46,193.43L511.92,187.86L511.38,209.4L510.84,207.41L510.3,183.44L509.22,236.07L508.68,211.75L508.14,222.09L507.6,178.03L507.06,170.56L506.52,188.48L505.44,187.13L504.9,165.76L503.82,206.54L503.28,268.22L502.74,259.3L502.2,190.77L501.66,242.31L501.12,224.91L500.58,241.04L500.04,228.5L499.5,162.46L498.96,180.01L498.42,173.39L497.88,173.7L497.34,180.58L496.8,208.66L495.72,226.95L495.18,210.89L494.64,177.62L494.1,187.31L493.56,204.93L492.48,154.47L491.94,244.35L491.4,254.47L490.86,230.05L490.32,214.61L489.78,220.35L489.24,221.05L488.7,211.13L488.16,174.17L486.54,231.06L486,204.56L485.46,229.54L484.92,211.74L484.38,175.12L483.84,207.77L483.3,195.9L482.76,204.95L481.68,180.05L481.14,187.87L480.6,193.04L480.06,215.28L479.52,210.45L478.98,224.41L478.44,222.77L477.9,195.05L477.36,219.58L476.82,202.59L476.28,205.46L475.74,169.4L474.66,214.51L474.12,249.37L472.5,200.68L471.96,199.57L471.42,182.54L470.88,211.33L470.34,218.46L469.8,187.67L469.26,214.47L468.72,185.78L468.18,193.95L467.64,242.62L467.1,268.19L466.56,208.04L466.02,242.44L465.48,211.44L463.86,120.06L463.32,205.57L462.78,202.43L462.24,243.74L461.7,244.63L461.16,220.12L460.62,174.58L460.08,174.81L459.54,178.75L459,226.57L458.46,222.77L457.92,216.44L457.38,209.66L456.84,218.44L455.22,162.86L454.68,166.07L454.14,207.44L453.6,198.44L453.06,223.5L452.52,247.55L451.98,198.75L451.44,199.66L450.9,210.85L450.36,207.47L449.82,208.01L449.28,193.46L448.2,242.2L447.66,206.54L446.58,176.91L446.04,204.67L445.5,231.65L444.96,204.52L444.42,145.96L443.88,176.69L442.8,203.67L442.26,191.13L441.72,208.75L441.18,205.4L440.64,182.97L440.1,213.45L439.56,205.52L439.02,218.18L438.48,223.07L437.94,195.7L437.4,188.7L436.86,197.49L435.78,211.07L435.24,210.93L434.7,213.74L434.16,222.88L433.62,213.7L433.08,210.35L432.54,191.94L432,174.43L431.46,175.36L430.92,189.58L430.38,212.68L429.84,202.76L429.3,210.51L428.76,182.69L428.22,134.07L427.68,202.28L427.14,240.17L426.6,199.84L425.52,154.01L424.98,230.86L424.44,194.14L423.9,212.18L423.36,191.14L422.82,204.25L422.28,181.54L421.74,182.21L421.2,204.58L420.66,219.69L420.12,190.62L419.58,180.93L419.04,138.34L417.96,189.93L417.42,169.16L416.34,224.02L415.8,192.94L415.26,169.13L414.72,190.24L414.18,183.54L413.64,165.58L413.1,198.56L412.56,174.1L411.48,218.52L410.94,185.95L410.4,166.08L409.86,206.53L409.32,211.19L408.78,155.76L407.16,227.47L406.62,220.8L406.08,204.48L405.54,217.83L405,241.02L404.46,231.19L403.92,209.3L403.38,221.8L401.76,192.34L401.22,169.23L400.68,206.15L400.14,194.97L399.6,214.64L398.52,181.85L397.98,219.27L396.36,138.72L395.82,182.07L395.28,207.76L394.74,205.55L394.2,186.14L393.66,211.07L393.12,199.17L392.58,220.47L392.04,175.12L391.5,214.85L390.96,181.46L390.42,161.44L389.88,184.7L389.34,177.14L388.8,212.73L388.26,181.42L387.72,189.62L387.18,201.55L386.64,176.29L386.1,193.22L385.56,170.55L385.02,222.4L384.48,183.19L383.94,186.91L383.4,189.02L382.86,163.24L382.32,168.03L381.78,171.9L380.16,230.89L379.62,220.94L379.08,188.55L378.54,213.95L377.46,226.16L376.92,196.08L376.38,161.83L375.84,200.65L375.3,205.63L374.76,219.66L374.22,173.9L373.68,218.61L373.14,243.69L372.6,212.77L372.06,163.51L371.52,210.21L370.44,181.21L369.9,204.73L369.36,241.46L368.82,201.43L368.28,183.85L367.74,232.31L367.2,227.94L366.66,180.95L366.12,169.67L365.58,177.65L365.04,185.06L364.5,213.83L363.96,218.01L363.42,181.52L362.88,189.82L362.34,180.74L361.8,175.08L361.26,217.08L360.18,215.51L359.64,220.58L359.1,238.41L358.56,237.05L358.02,211.01L357.48,196.93L356.94,203.21L356.4,224.67L355.86,196.39L355.32,223.75L354.78,220.1L354.24,212.62L353.7,205.23L353.16,161.9L351.54,188.71L351,223.15L350.46,222.57L349.92,211.72L349.38,171.12L348.84,200.13L348.3,210.34L347.76,199.57L347.22,183.81L346.68,194.14L345.6,243.52L345.06,234.67L344.52,216.12L343.98,223.7L342.9,139.74L342.36,195.85L341.82,227.53L341.28,206.55L340.74,205.14L340.2,206.72L339.66,235.02L339.12,226.08L338.58,199.08L337.5,174.65L336.96,181.74L336.42,204.63L335.88,189.33L335.34,187.62L334.8,198.76L334.26,229.47L333.72,213.14L333.18,176.22L332.64,197.54L332.1,226.31L331.56,129.77L331.02,130.74L330.48,228.16L328.86,163.51L328.32,200.54L327.78,152.09L327.24,210.67L325.08,139.08L324.54,211.67L323.46,196.03L322.92,244.69L322.38,246.2L321.84,225.23L321.3,225.44L320.76,238.84L320.22,180.24L319.68,196.54L319.14,176.97L318.6,177.06L318.06,200.3L317.52,147.32L316.98,154.63L316.44,186.89L315.9,237.1L315.36,222.09L314.82,190L314.28,153.75L313.74,173.94L313.2,162.53L312.66,198.7L311.58,222.2L311.04,210.82L310.5,232.76L309.96,185.05L308.88,211.21L308.34,183.26L307.26,228.17L306.72,211.26L306.18,207.18L305.64,239.1L305.1,233.46L304.56,246.37L303.48,198.27L302.94,203.24L302.4,189.84L301.86,187.69L301.32,170.49L299.7,218.78L299.16,202.82L298.08,250.42L297.54,190.53L297,161.44L296.46,174.78L295.92,193.23L295.38,136.72L294.84,212.15L294.3,182.9L293.76,191.01L293.22,191.29L292.68,198.63L291.6,226.79L291.06,230.95L290.52,200.67L289.98,200.73L289.44,230.05L288.36,178.21L287.82,205.8L287.28,202.14L286.74,188.51L286.2,217.32L285.66,184.83L285.12,181.7L284.58,192.82L284.04,177.05L283.5,197.15L282.96,194.11L282.42,171.61L281.34,233.67L280.8,226.05L280.26,229.08L279.72,215.32L279.18,211.77L278.64,178.72L277.02,222.09L276.48,189.93L275.4,202.09L274.86,187.87L273.78,201.56L273.24,221.11L272.7,232.76L272.16,223.91L271.08,188.06L270.54,209.93L270,216.41L269.46,195.65L268.92,234.39L268.38,196.79L267.84,224.69L267.3,183.57L266.22,214.04L265.68,159.3L265.14,155.14L264.6,201.45L264.06,192.97L263.52,200.01L262.98,186.21L262.44,205.16L261.36,206.15L260.82,171.08L260.28,203.03L259.74,188.9L259.2,221.76L258.66,209.26L258.12,182.58L257.58,135.88L257.04,180.23L256.5,216.8L255.96,206.37L255.42,205.95L254.34,235.96L253.8,209.75L253.26,217.03L252.72,172.81L252.18,170.92L251.64,184.23L251.1,192.58L250.56,228.01L248.94,162.8L248.4,195.91L247.86,156.18L247.32,206.07L246.78,228.41L246.24,182.77L245.7,179.94L245.16,191L244.62,195.2L244.08,228.62L243,181.73L242.46,193.47L241.92,198.22L241.38,220.13L240.84,230.52L240.3,229.55L239.76,199.86L238.14,212.75L237.6,219.02L237.06,250.71L236.52,190.28L235.98,171.25L235.44,188.82L234.9,232.27L234.36,207.16L233.82,219.87L233.28,216.22L232.74,183.92L232.2,164.44L231.66,170.96L231.12,214.1L230.04,203.39L229.5,233.27L228.42,198.61L227.88,217.92L226.8,186.1L226.26,241.74L225.72,199.55L225.18,214.1L224.64,175.9L224.1,183.82L223.56,206.12L222.48,236.58L221.94,213.19L221.4,177.16L220.86,211.78L219.78,189.68L219.24,191.46L218.7,195.07L218.16,191.69L217.08,235.8L216.54,214.52L216,222.27L215.46,212.9L214.92,184.27L214.38,215.45L213.84,209.25L213.3,213.89L212.76,198.23L212.22,212.15L211.68,177.17L211.14,185.88L210.6,237.79L210.06,230.8L209.52,235.94L208.98,220.33L208.44,221.9L207.9,227.16L207.36,178.99L206.82,179.31L206.28,225.75L205.74,207.78L205.2,210.2L204.66,216.66L204.12,206.01L203.58,235.46L202.5,190.02L201.96,206.48L199.8,185.8L199.26,172.78L198.72,226.97L198.18,197.81L197.64,217.36L197.1,214.42L196.56,189.93L195.48,233.6L194.94,192.65L194.4,186.56L193.86,200.3L193.32,210.25L192.78,197.96L192.24,201.29L191.7,172.81L190.62,209.62L190.08,192.7L189,198.8L188.46,234.99L187.92,221.62L187.38,246.46L186.3,202.68L185.76,205.29L184.14,229.21L183.6,236.42L183.06,247.08L182.52,217.99L181.44,211.35L180.9,202.1L180.36,230.37L179.82,220.38L179.28,221.31L178.2,206.14L177.66,211.53L177.12,191.3L176.58,210.06L175.5,219.46L174.96,216.77L174.42,218.43L173.88,185.22L172.8,213.03L172.26,201.79L171.72,226.04L171.18,195.12L170.64,226.21L170.1,199.58L169.56,214.65L169.02,211.44L168.48,220.43L167.94,223.9L167.4,201.98L166.86,201.33L166.32,202.59L165.24,184.14L164.7,198.67L163.62,233.99L163.08,203.89L162.54,222.98L162,196.45L161.46,206L160.92,177.52L159.84,201.6L159.3,175.81L158.76,175.5L158.22,225.77L157.14,188.81L156.6,208.17L156.06,207.79L155.52,186.99L154.44,234.91L153.9,229.56L153.36,198.92L152.82,222.48L152.28,230.02L151.74,260.82L150.66,178.51L150.12,178.55L149.58,210.1L149.04,197.89L148.5,202.06L147.96,230.31L147.42,219.79L146.88,228.93L146.34,247.98L145.8,238.55L144.72,244.23L144.18,255.76L143.1,249.45L142.56,238.94L142.02,235.45L141.48,239.33L140.94,243.72L140.4,239.38L139.86,229.02L139.32,238.48L138.78,241.77L138.24,260.26L137.16,237.91L136.62,237.47L136.08,251.23L135.54,239.12L135,222.19L134.46,233.7L133.92,227.61L133.38,246.81L132.84,249.45L132.3,226.46L131.76,219.33L131.22,222.2L130.68,232.75L130.14,222.03L129.6,225.29L129.06,222.68L127.98,214.92L127.44,241.93L126.36,230.6L125.82,232.83L125.28,242.75L124.74,229.57L124.2,241.9L123.66,234.99L123.12,231.76L122.58,233.26L122.04,226.77L121.5,229.01L120.96,225L120.42,237.93L119.88,226.91L119.34,234.9L118.8,230.02L118.26,250.78L117.72,244.1L117.18,234.52L116.64,256.48L116.1,248.47L115.56,241.19L115.02,242.25L114.48,234.09L113.94,248.55L113.4,242.72L112.32,212.17L111.78,233.44L110.7,203.56L110.16,216.02L109.62,241.29L109.08,233.06L108.54,201.94L108,223.09L107.46,213.91L106.92,239.04L106.38,224.92L105.84,225.61L105.3,243.25L104.76,226.76L104.22,238.57L103.68,255.9L103.14,252.35L102.6,240.01L102.06,237.78L101.52,239.41L100.98,235.44L100.44,242.68L99.36,227.33L98.82,258.97L98.28,251.67L97.74,223.52L97.2,240.07L96.66,227.09L95.58,261.19L95.04,253.59L94.5,226.84L93.96,236.41L93.42,247.23L92.34,238.63L91.8,234.16L91.26,231.38L90.72,233.61L90.18,222.69L89.64,253.99L89.1,262.09L88.56,255.92L88.02,250.51L87.48,236.32L86.94,227.03L86.4,232.99L85.32,247.65L84.78,229.58L84.24,240.62L83.7,235.91L82.08,255.09L81.54,234.57L81,242.53L80.46,238.16L79.92,244.07L79.38,241.46L78.84,230.75L78.3,204.6L77.22,249.88L76.68,221.36L75.6,240.71L75.06,240.37L74.52,228.76L73.98,238.24L73.44,262.77L72.9,251.12L72.36,237.27L71.82,237.78L71.28,240.8L70.74,238.46L70.2,226.48L69.66,237.07L69.12,225.63L68.58,228.67L68.04,223.41L67.5,235.21L66.96,225.07L65.88,232.86L65.34,226.35L64.8,251.63L64.26,245.53L63.72,237.04L63.18,254.7L62.64,250.98L62.1,241.43L61.56,244.29L61.02,238.91L60.48,249.36L59.94,231.88L59.4,214.36L58.86,248.42L58.32,244.43L57.78,252.08L57.24,234.7L56.7,242.6L56.16,220.39L55.62,231.34L55.08,215.58L54.54,251.94L54,220.12L53.46,250.35L52.92,263.86L52.38,221.66L51.3,250.34L50.76,242.99L50.22,226.37L49.68,232.1L49.14,232.11L48.6,224.58L48.06,228.21L46.98,252.77L46.44,235.34L45.9,227.95L45.36,235.55L44.28,213.75L43.74,225.39L42.66,250.04L42.12,254.64L41.58,247.75L41.04,230.02L40.5,246.79L39.96,239.84L39.42,231.15L38.88,233.66L38.34,225.99L37.8,237.21L37.26,214.66L36.18,238.94L35.64,251.22L35.1,250.49L34.56,262.47L33.48,245.97L32.94,225.67L32.4,250.14L31.86,233.66L31.32,252.75L30.78,234.91L30.24,209.38L29.7,236.27L29.16,229.64L28.62,240.46L28.08,233.13L27.54,253.89L26.46,222.31L25.92,242.34L24.84,236.67L24.3,241.8L23.76,242.9L23.22,246.68L22.14,243.14L21.6,264.01L21.06,255.8L20.52,260.64L19.98,264.27L19.44,244.9L18.9,240.93L18.36,249.06L17.82,255.44L17.28,245.9L16.2,258.65L15.66,243.53L14.04,268.02L13.5,261.32L12.96,260.89L12.42,264.53L11.88,261.03L11.34,265.51L10.8,264.54L10.26,273.66L9.18,268.33L8.64,271.65L8.1,269.26L7.56,269.68L7.02,275.13L6.48,272.66L5.94,274.54L5.4,274.67L4.86,278.75L4.32,281.23L3.78,275.98L1.62,304L1.08,287.98L0.54,287.13L0,289.8" style="vector-effect: non-scaling-stroke; fill: none; stroke: rgb(255, 255, 255); stroke-opacity: 0; stroke-width: 2px; opacity: 1;"/></g><g class="points"/><g class="text"/></g></g></g><g class="overplot"/><path class="xlines-above crisp" d="M0,0" style="fill: none;"/><path class="ylines-above crisp" d="M0,0" style="fill: none;"/><g class="overlines-above"/><g class="xaxislayer-above"><g class="xtick"><text text-anchor="middle" x="0" y="433" transform="translate(187.45999999999998,0)" style="font-family: 'Open Sans', verdana, arial, sans-serif; font-size: 12px; fill: rgb(42, 63, 95); fill-opacity: 1; white-space: pre; opacity: 1;">200</text></g><g class="xtick"><text text-anchor="middle" x="0" y="433" style="font-family: 'Open Sans', verdana, arial, sans-serif; font-size: 12px; fill: rgb(42, 63, 95); fill-opacity: 1; white-space: pre; opacity: 1;" transform="translate(295.46000000000004,0)">400</text></g><g class="xtick"><text text-anchor="middle" x="0" y="433" style="font-family: 'Open Sans', verdana, arial, sans-serif; font-size: 12px; fill: rgb(42, 63, 95); fill-opacity: 1; white-space: pre; opacity: 1;" transform="translate(403.46,0)">600</text></g><g class="xtick"><text text-anchor="middle" x="0" y="433" style="font-family: 'Open Sans', verdana, arial, sans-serif; font-size: 12px; fill: rgb(42, 63, 95); fill-opacity: 1; white-space: pre; opacity: 1;" transform="translate(511.46,0)">800</text></g><g class="xtick"><text text-anchor="middle" x="0" y="433" style="font-family: 'Open Sans', verdana, arial, sans-serif; font-size: 12px; fill: rgb(42, 63, 95); fill-opacity: 1; white-space: pre; opacity: 1;" transform="translate(619.46,0)">1000</text></g></g><g class="yaxislayer-above"><g class="ytick"><text text-anchor="end" x="79" y="4.199999999999999" transform="translate(0,406.82)" style="font-family: 'Open Sans', verdana, arial, sans-serif; font-size: 12px; fill: rgb(42, 63, 95); fill-opacity: 1; white-space: pre; opacity: 1;">10k</text></g><g class="ytick"><text text-anchor="end" x="79" y="4.199999999999999" style="font-family: 'Open Sans', verdana, arial, sans-serif; font-size: 12px; fill: rgb(42, 63, 95); fill-opacity: 1; white-space: pre; opacity: 1;" transform="translate(0,324.13)">5k</text></g><g class="ytick"><text text-anchor="end" x="79" y="4.199999999999999" style="font-family: 'Open Sans', verdana, arial, sans-serif; font-size: 12px; fill: rgb(42, 63, 95); fill-opacity: 1; white-space: pre; opacity: 1;" transform="translate(0,241.44)">0</text></g><g class="ytick"><text text-anchor="end" x="79" y="4.199999999999999" style="font-family: 'Open Sans', verdana, arial, sans-serif; font-size: 12px; fill: rgb(42, 63, 95); fill-opacity: 1; white-space: pre; opacity: 1;" transform="translate(0,158.75)">5k</text></g></g><g class="overaxes-above"/></g></g><g class="polarlayer"/><g class="smithlayer"/><g class="ternarylayer"/><g class="geolayer"/><g class="funnelarealayer"/><g class="pielayer"/><g class="iciclelayer"/><g class="treemaplayer"/><g class="sunburstlayer"/><g class="glimages"/><defs id="topdefs-9b8a87"><g class="clips"/></defs><g class="layer-above"><g class="imagelayer"/><g class="shapelayer"/></g><g class="infolayer"><g class="g-gtitle"><text class="gtitle" x="35" y="50" text-anchor="start" dy="0em" style="font-family: 'Open Sans', verdana, arial, sans-serif; font-size: 17px; fill: rgb(42, 63, 95); opacity: 1; font-weight: normal; white-space: pre;">Average Fitness per Generation</text></g><g class="g-xtitle"><text class="xtitle" x="350" y="460.8" text-anchor="middle" style="font-family: 'Open Sans', verdana, arial, sans-serif; font-size: 14px; fill: rgb(42, 63, 95); opacity: 1; font-weight: normal; white-space: pre;">Generation</text></g><g class="g-ytitle"><text class="ytitle" transform="rotate(-90,27.840625000000003,260)" x="27.840625000000003" y="260" text-anchor="middle" style="font-family: 'Open Sans', verdana, arial, sans-serif; font-size: 14px; fill: rgb(42, 63, 95); opacity: 1; font-weight: normal; white-space: pre;">Fitness</text></g></g></svg>