<svg class="main-svg" xmlns="http://www.w3.org/2000/svg" xmlns:xlink="http://www.w3.org/1999/xlink" width="700" height="500" style="" viewBox="0 0 700 500"><rect x="0" y="0" width="700" height="500" style="fill: rgb(255, 255, 255); fill-opacity: 1;"/><defs id="defs-700794"><g class="clips"><clipPath id="clip700794xyplot" class="plotclip"><rect width="540" height="320"/></clipPath><clipPath class="axesclip" id="clip700794x"><rect x="80" y="0" width="540" height="500"/></clipPath><clipPath class="axesclip" id="clip700794y"><rect x="0" y="100" width="700" height="320"/></clipPath><clipPath class="axesclip" id="clip700794xy"><rect x="80" y="100" width="540" height="320"/></clipPath></g><g class="gradients"/><g class="patterns"/></defs><g class="bglayer"><rect class="bg" x="80" y="100" width="540" height="320" style="fill: rgb(229, 236, 246); fill-opacity: 1; stroke-width: 0;"/></g><g class="layer-below"><g class="imagelayer"/><g class="shapelayer"/></g><g class="cartesianlayer"><g class="subplot xy"><g class="layer-subplot"><g class="shapelayer"/><g class="imagelayer"/></g><g class="gridlayer"><g class="x"><path class="xgrid crisp" transform="translate(187.45999999999998,0)" d="M0,100v320" style="stroke: rgb(255, 255, 255); stroke-opacity: 1; stroke-width: 1px;"/><path class="xgrid crisp" transform="translate(295.46000000000004,0)" d="M0,100v320" style="stroke: rgb(255, 255, 255); stroke-opacity: 1; stroke-width: 1px;"/><path class="xgrid crisp" transform="translate(403.46,0)" d="M0,100v320" style="stroke: rgb(255, 255, 255); stroke-opacity: 1; stroke-width: 1px;"/><path class="xgrid crisp" transform="translate(511.46,0)" d="M0,100v320" style="stroke: rgb(255, 255, 255); stroke-opacity: 1; stroke-width: 1px;"/></g><g class="y"><path class="ygrid crisp" transform="translate(0,380.15)" d="M80,0h540" style="stroke: rgb(255, 255, 255); stroke-opacity: 1; stroke-width: 1px;"/><path class="ygrid crisp" transform="translate(0,337.18)" d="M80,0h540" style="stroke: rgb(255, 255, 255); stroke-opacity: 1; stroke-width: 1px;"/><path class="ygrid crisp" transform="translate(0,294.22)" d="M80,0h540" style="stroke: rgb(255, 255, 255); stroke-opacity: 1; stroke-width: 1px;"/><path class="ygrid crisp" transform="translate(0,251.25)" d="M80,0h540" style="stroke: rgb(255, 255, 255); stroke-opacity: 1; stroke-width: 1px;"/><path class="ygrid crisp" transform="translate(0,208.29000000000002)" d="M80,0h540" style="stroke: rgb(255, 255, 255); stroke-opacity: 1; stroke-width: 1px;"/><path class="ygrid crisp" transform="translate(0,165.32)" d="M80,0h540" style="stroke: rgb(255, 255, 255); stroke-opacity: 1; stroke-width: 1px;"/><path class="ygrid crisp" transform="translate(0,122.36)" d="M80,0h540" style="stroke: rgb(255, 255, 255); stroke-opacity: 1; stroke-width: 1px;"/></g></g><g class="zerolinelayer"/><path class="xlines-below"/><path class="ylines-below"/><g class="overlines-below"/><g class="xaxislayer-below"/><g class="yaxislayer-below"/><g class="overaxes-below"/><g class="plot" transform="translate(80,100)" clip-path="url(#clip700794xyplot)"><g class="scatterlayer mlayer"><g class="trace scatter trace38e47d" style="stroke-miterlimit: 2; opacity: 1;"><g class="fills"/><g class="errorbars"/><g class="lines"><path class="js-line" d="M0,257.16L0.54,218.38L1.08,249.37L1.62,264.94L2.16,249.42L2.7,257.19L3.24,194.82L5.94,194.83L6.48,226.18L7.56,194.82L8.1,179.23L9.18,194.83L9.72,280.6L10.26,226.09L10.8,272.7L11.34,218.2L11.88,272.86L12.42,257.42L12.96,194.82L13.5,272.78L14.04,226.08L14.58,264.91L15.12,194.82L15.66,304L16.2,194.97L18.36,194.94L18.9,264.95L19.44,194.93L19.98,226.44L20.52,194.82L21.06,194.83L21.6,194.82L22.14,218.24L22.68,194.82L24.84,194.83L25.38,218.58L25.92,210.43L26.46,233.77L27.54,187.18L28.08,194.82L28.62,194.83L29.16,241.54L30.24,194.82L30.78,194.82L31.32,288.39L31.86,202.66L32.4,241.56L32.94,187.01L34.02,194.83L34.56,233.86L35.1,194.9L35.64,226L36.18,226.01L36.72,194.83L37.26,187.2L37.8,194.83L38.34,194.82L38.88,264.95L39.42,194.82L39.96,194.83L40.5,280.63L41.04,194.82L41.58,194.83L42.12,194.82L42.66,194.83L43.2,187.18L43.74,241.56L44.28,233.79L44.82,194.82L45.9,187.21L46.44,187.2L46.98,288.29L47.52,194.93L48.06,218.23L48.6,194.82L49.14,194.82L49.68,187.18L50.76,187.21L51.3,249.32L52.38,187.02L52.92,241.56L54,194.82L54.54,194.83L55.08,187.2L55.62,194.83L56.16,179.48L56.7,194.83L57.24,241.66L57.78,194.94L58.86,194.83L59.4,241.56L60.48,194.83L61.02,194.83L61.56,179.46L62.1,241.59L62.64,194.82L63.18,194.83L63.72,194.94L64.26,233.8L64.8,194.83L65.34,164L65.88,179.46L66.42,194.82L66.96,280.63L67.5,194.82L68.04,288.33L69.12,194.82L69.66,218.23L70.74,194.83L71.28,233.83L72.36,179.47L72.9,194.83L73.44,194.82L73.98,272.74L74.52,194.83L75.06,241.64L75.6,194.82L76.14,241.55L76.68,194.82L77.22,296.14L78.3,93.74L78.84,225.98L79.92,194.94L80.46,288.41L81,179.45L81.54,194.83L82.08,187.17L82.62,226L83.16,101.56L83.7,280.53L84.24,194.83L84.78,272.88L85.32,194.83L85.86,226.04L86.4,210.5L87.48,187.01L88.02,194.93L88.56,288.31L89.1,194.83L89.64,241.7L90.18,187.2L90.72,241.56L91.26,202.79L91.8,194.92L92.34,257.1L92.88,280.6L93.42,225.99L94.5,194.83L95.04,194.94L95.58,249.4L96.12,187.18L97.2,194.82L97.74,257.31L98.82,194.83L99.36,187.18L100.44,194.83L100.98,187.19L101.52,210.64L102.06,171.73L102.6,194.93L103.14,264.94L104.22,194.82L104.76,194.83L105.3,194.93L105.84,202.66L106.38,249.37L106.92,179.23L108,194.82L108.54,187.01L109.08,257.19L109.62,194.93L110.7,179.46L111.24,194.82L115.56,194.94L116.1,264.98L117.18,163.98L117.72,272.77L118.8,194.82L119.34,194.82L119.88,155.9L120.42,226.05L120.96,148.53L121.5,194.83L122.58,194.83L123.12,257.15L123.66,241.56L124.2,194.83L126.36,194.82L126.9,265.1L127.44,280.66L127.98,194.82L129.06,194.83L129.6,226.01L130.14,226.22L130.68,218.24L131.22,187.2L131.76,194.82L132.3,194.82L132.84,280.58L133.38,241.61L133.92,194.82L134.46,194.83L135,272.7L135.54,257.19L136.08,194.93L137.16,194.82L137.7,241.56L138.78,194.82L139.32,210.43L139.86,210.43L140.4,233.8L140.94,265.01L141.48,210.41L142.56,194.82L143.1,187.18L143.64,187.17L144.18,194.94L144.72,194.82L145.26,226L145.8,194.94L146.34,249.62L146.88,194.82L147.42,257.12L148.5,194.82L149.04,265.09L150.12,194.82L150.66,194.83L151.74,194.83L152.28,218.21L152.82,194.82L153.36,218.25L153.9,194.83L154.44,241.67L155.52,194.82L156.06,257.13L157.14,194.82L157.68,202.98L158.22,194.83L158.76,179.47L159.3,187.21L160.38,194.82L160.92,194.83L165.24,194.83L165.78,249.49L166.86,194.82L167.4,171.74L168.48,194.83L169.02,194.83L169.56,194.99L170.1,249.34L170.64,233.92L171.18,194.83L171.72,218.21L172.26,194.82L172.8,194.82L173.34,225.98L173.88,233.78L174.42,179.22L174.96,218.2L175.5,194.88L176.58,194.92L177.12,202.66L178.2,194.82L178.74,194.83L179.28,296.2L179.82,233.76L180.36,233.8L180.9,202.65L181.44,194.83L181.98,272.72L183.6,194.83L184.14,226.01L184.68,218.49L185.22,194.83L185.76,194.83L186.3,203.43L187.38,194.82L187.92,194.82L188.46,194.82L189,179.46L189.54,194.82L190.08,233.83L190.62,194.82L191.16,194.83L191.7,257.14L192.78,233.89L193.32,194.83L194.4,194.82L194.94,226.02L195.48,288.37L196.02,194.83L196.56,257.29L197.1,241.56L197.64,194.82L198.18,187.18L198.72,194.82L199.26,194.83L199.8,241.56L200.34,163.99L200.88,194.83L201.42,194.91L201.96,210.47L202.5,194.83L203.04,296.09L204.12,194.82L204.66,264.97L205.2,194.83L205.74,202.84L206.28,194.83L206.82,179.45L207.36,288.3L208.44,194.82L208.98,194.82L209.52,233.86L210.06,187.21L210.6,195.14L211.14,249.33L211.68,194.82L212.22,241.58L212.76,241.68L213.3,194.82L213.84,187.2L214.38,194.82L217.08,194.94L217.62,226.05L218.7,194.94L219.24,194.92L219.78,194.82L220.32,187.21L220.86,280.7L221.4,194.83L221.94,280.53L222.48,194.82L224.64,194.92L225.18,218.38L225.72,194.91L226.26,210.46L226.8,194.83L227.34,264.97L227.88,218.21L228.42,218.27L228.96,194.94L231.66,194.83L232.2,210.67L232.74,179.53L233.28,249.39L233.82,194.82L234.36,249.42L234.9,249.49L235.44,194.82L236.52,202.68L237.06,187.21L237.6,257.18L238.14,194.82L238.68,280.6L239.22,194.94L243.54,194.82L244.08,194.82L246.78,194.83L247.32,171.45L248.4,241.56L248.94,194.83L249.48,194.83L250.02,226.04L250.56,257.13L251.1,202.68L251.64,249.37L252.18,187.2L252.72,233.86L253.26,194.92L253.8,194.82L254.34,272.74L255.42,187.18L255.96,194.94L256.5,296.14L257.04,272.77L257.58,148.11L258.12,210.47L258.66,194.83L259.2,194.82L259.74,272.7L260.28,194.93L260.82,202.7L261.36,187.21L262.98,202.72L263.52,225.99L264.06,194.82L264.6,218.25L265.14,241.57L265.68,194.82L266.22,194.83L266.76,257.15L267.3,241.72L267.84,194.93L268.38,194.82L268.92,241.61L269.46,265L270,202.71L271.08,194.83L271.62,241.59L272.16,194.94L272.7,257.13L273.78,187.21L274.32,241.58L274.86,194.83L275.4,194.94L275.94,194.94L276.48,194.94L277.02,218.22L278.1,194.82L278.64,194.82L279.18,194.83L279.72,202.92L280.26,194.83L280.8,264.97L281.88,194.83L282.42,194.9L285.12,194.83L285.66,187.18L286.2,187.21L286.74,194.94L287.28,187.18L287.82,257.25L289.44,187.19L289.98,194.83L291.6,194.82L292.14,296.1L293.22,187.02L293.76,194.83L294.3,194.83L294.84,202.75L295.38,171.75L296.46,194.82L297,187.19L297.54,195.21L298.08,241.98L298.62,233.92L299.16,187.19L300.24,194.83L300.78,194.83L301.32,249.44L301.86,194.82L302.4,194.83L302.94,296.08L304.56,187.21L305.1,187.2L305.64,218.22L306.18,194.83L307.26,194.83L307.8,272.7L308.34,187.19L308.88,194.83L309.42,303.97L310.5,194.87L311.04,194.83L313.2,194.83L313.74,257.13L314.28,171.74L314.82,194.83L315.36,194.83L315.9,296.28L316.44,194.83L317.52,194.83L318.06,280.56L318.6,194.82L319.14,194.83L319.68,194.83L320.22,194.82L320.76,202.71L321.3,265.07L321.84,194.82L324,194.82L324.54,249.42L325.62,187.02L326.16,249.33L326.7,288.39L327.24,241.58L328.32,194.82L328.86,194.82L329.94,257.21L330.48,194.82L331.02,171.75L331.56,272.75L332.64,187.19L333.18,194.83L333.72,280.53L334.26,194.82L334.8,194.82L335.34,202.76L335.88,202.64L336.42,194.82L337.5,187.02L338.04,257.11L339.12,194.83L339.66,194.82L341.28,194.82L341.82,187.19L342.36,194.83L342.9,179.45L343.44,194.82L343.98,241.56L344.52,233.82L345.06,202.81L345.6,194.83L346.14,226.03L346.68,179.45L347.22,194.82L347.76,194.82L349.38,194.82L349.92,187.21L351,194.92L351.54,194.86L352.62,194.82L353.16,179.46L354.24,194.83L354.78,194.83L355.32,194.82L355.86,272.79L356.4,194.82L356.94,241.55L357.48,225.99L358.02,280.76L358.56,272.88L359.1,194.86L359.64,194.92L360.18,187.21L360.72,218.24L361.26,194.82L361.8,179.45L362.34,194.83L363.42,187.21L363.96,202.72L365.04,194.82L365.58,194.94L366.12,194.82L366.66,233.87L367.2,264.93L367.74,187.17L368.82,194.82L369.36,187.18L370.44,194.96L370.98,194.83L372.06,194.83L372.6,233.9L373.68,187.19L374.22,187.2L375.3,194.83L375.84,194.82L376.38,179.45L376.92,226.09L377.46,187.17L378,210.46L378.54,187.2L379.08,264.93L380.16,194.82L380.7,194.82L381.24,187.19L381.78,194.94L382.32,156.26L382.86,194.82L383.94,194.94L384.48,257.21L385.02,241.61L385.56,194.82L387.72,194.83L388.26,257.35L388.8,194.82L389.34,194.83L389.88,194.82L390.42,210.47L390.96,171.75L393.12,249.31L393.66,194.83L394.74,194.83L395.28,187.33L395.82,179.45L396.36,187.18L397.44,187.21L397.98,194.94L398.52,187.21L399.06,226.78L400.14,194.82L400.68,194.82L401.22,264.9L401.76,194.83L402.3,194.92L402.84,233.8L403.38,194.92L403.92,194.94L404.46,218.24L405.54,187.16L406.08,194.83L406.62,194.82L407.16,249.54L408.24,194.82L408.78,194.82L409.32,272.97L409.86,194.82L410.4,257.34L410.94,218.25L412.02,194.83L412.56,194.83L413.64,257.15L414.18,226.08L414.72,194.83L415.26,257.25L415.8,233.8L416.34,257.1L416.88,194.83L417.42,194.94L417.96,194.82L419.58,194.82L420.12,249.36L421.2,194.82L421.74,194.83L422.82,194.83L423.36,241.56L423.9,203.51L424.44,264.95L425.52,194.83L426.06,233.8L426.6,194.82L427.14,210.44L428.22,187.21L428.76,187.21L429.3,194.82L429.84,272.8L430.38,194.83L430.92,233.78L431.46,179.23L432,187.17L432.54,194.94L435.24,194.83L435.78,187.19L436.32,194.82L436.86,187.02L437.94,194.83L438.48,194.94L439.02,194.83L439.56,202.66L440.1,233.77L440.64,164L441.72,241.6L442.26,194.82L442.8,241.56L443.34,187.18L443.88,187.19L444.42,78.14L445.5,194.83L446.04,194.83L446.58,194.83L447.12,265.31L447.66,194.82L448.2,194.83L448.74,187.19L449.82,194.83L450.36,194.82L450.9,218.23L451.44,194.83L451.98,187.17L452.52,194.83L453.6,187.2L454.14,194.83L455.22,194.94L455.76,249.36L456.3,210.5L456.84,264.94L457.92,194.82L458.46,296.1L459.54,194.82L460.08,218.24L461.16,194.83L461.7,194.82L462.24,264.98L462.78,194.83L463.86,187.19L464.4,194.82L465.48,194.92L466.02,249.87L466.56,241.57L467.1,194.83L467.64,187.2L468.18,194.94L469.26,187.2L469.8,194.82L470.88,233.78L471.42,194.82L471.96,288.44L472.5,241.58L473.04,257.25L473.58,194.83L474.66,194.82L475.2,179.47L476.28,194.94L476.82,194.82L477.36,257.16L477.9,194.83L478.44,226.08L478.98,194.82L479.52,241.56L480.06,194.83L480.6,194.93L481.14,226.05L482.22,171.71L482.76,241.56L483.3,194.93L483.84,241.57L484.38,187.2L484.92,210.47L485.46,194.83L486,194.94L486.54,257.25L487.62,187.18L488.16,194.94L489.24,272.72L489.78,194.82L490.32,233.86L490.86,194.83L493.02,194.94L493.56,233.79L494.1,194.93L494.64,202.79L495.18,194.83L495.72,194.82L496.26,303.97L496.8,202.7L497.34,233.77L497.88,233.75L498.42,187.2L498.96,194.83L499.5,194.83L502.2,194.82L502.74,226.01L503.28,202.67L503.82,249.38L504.36,233.78L504.9,194.94L505.44,187.2L505.98,194.83L508.14,194.82L508.68,288.45L509.22,280.57L509.76,194.82L510.3,194.82L510.84,241.68L511.38,194.92L511.92,210.43L512.46,194.83L513,194.82L513.54,218.38L514.08,179.46L514.62,194.83L515.16,241.59L515.7,194.92L516.24,218.43L516.78,194.82L517.32,187.17L517.86,194.82L518.4,202.66L518.94,194.83L519.48,194.92L520.02,16L520.56,280.54L521.1,210.47L521.64,194.83L522.18,210.48L522.72,194.94L523.26,249.42L523.8,194.93L525.42,194.94L525.96,187.2L527.04,272.88L527.58,194.83L530.28,194.93L530.82,296.1L532.44,187.19L532.98,187.2L533.52,257.24L534.06,156.28L535.14,194.83L535.68,194.83L537.84,194.94L538.38,179.23L538.92,233.79L539.46,194.93L540,194.82" style="vector-effect: non-scaling-stroke; fill: none; stroke: rgb(239, 85, 59); stroke-opacity: 1; stroke-width: 2px; opacity: 1;"/></g><g class="points"/><g class="text"/></g></g></g><g class="overplot"/><path class="xlines-above crisp" d="M0,0" style="fill: none;"/><path class="ylines-above crisp" d="M0,0" style="fill: none;"/><g class="overlines-above"/><g class="xaxislayer-above"><g class="xtick"><text text-anchor="middle" x="0" y="433" transform="translate(187.45999999999998,0)" style="font-family: 'Open Sans', verdana, arial, sans-serif; font-size: 12px; fill: rgb(42, 63, 95); fill-opacity: 1; white-space: pre; opacity: 1;">200</text></g><g class="xtick"><text text-anchor="middle" x="0" y="433" style="font-family: 'Open Sans', verdana, arial, sans-serif; font-size: 12px; fill: rgb(42, 63, 95); fill-opacity: 1; white-space: pre; opacity: 1;" transform="translate(295.46000000000004,0)">400</text></g><g class="xtick"><text text-anchor="middle" x="0" y="433" style="font-family: 'Open Sans', verdana, arial, sans-serif; font-size: 12px; fill: rgb(42, 63, 95); fill-opacity: 1; white-space: pre; opacity: 1;" transform="translate(403.46,0)">600</text></g><g class="xtick"><text text-anchor="middle" x="0" y="433" style="font-family: 'Open Sans', verdana, arial, sans-serif; font-size: 12px; fill: rgb(42, 63, 95); fill-opacity: 1; white-space: pre; opacity: 1;" transform="translate(511.46,0)">800</text></g><g class="xtick"><text text-anchor="middle" x="0" y="433" style="font-family: 'Open Sans', verdana, arial, sans-serif; font-size: 12px; fill: rgb(42, 63, 95); fill-opacity: 1; white-space: pre; opacity: 1;" transform="translate(619.46,0)">1000</text></g></g><g class="yaxislayer-above"><g class="ytick"><text text-anchor="end" x="79" y="4.199999999999999" transform="translate(0,380.15)" style="font-family: 'Open Sans', verdana, arial, sans-serif; font-size: 12px; fill: rgb(42, 63, 95); fill-opacity: 1; white-space: pre; opacity: 1;">−8850</text></g><g class="ytick"><text text-anchor="end" x="79" y="4.199999999999999" style="font-family: 'Open Sans', verdana, arial, sans-serif; font-size: 12px; fill: rgb(42, 63, 95); fill-opacity: 1; white-space: pre; opacity: 1;" transform="translate(0,337.18)">−8800</text></g><g class="ytick"><text text-anchor="end" x="79" y="4.199999999999999" style="font-family: 'Open Sans', verdana, arial, sans-serif; font-size: 12px; fill: rgb(42, 63, 95); fill-opacity: 1; white-space: pre; opacity: 1;" transform="translate(0,294.22)">−8750</text></g><g class="ytick"><text text-anchor="end" x="79" y="4.199999999999999" style="font-family: 'Open Sans', verdana, arial, sans-serif; font-size: 12px; fill: rgb(42, 63, 95); fill-opacity: 1; white-space: pre; opacity: 1;" transform="translate(0,251.25)">−8700</text></g><g class="ytick"><text text-anchor="end" x="79" y="4.199999999999999" style="font-family: 'Open Sans', verdana, arial, sans-serif; font-size: 12px; fill: rgb(42, 63, 95); fill-opacity: 1; white-space: pre; opacity: 1;" transform="translate(0,208.29000000000002)">−8650</text></g><g class="ytick"><text text-anchor="end" x="79" y="4.199999999999999" style="font-family: 'Open Sans', verdana, arial, sans-serif; font-size: 12px; fill: rgb(42, 63, 95); fill-opacity: 1; white-space: pre; opacity: 1;" transform="translate(0,165.32)">−8600</text></g><g class="ytick"><text text-anchor="end" x="79" y="4.199999999999999" style="font-family: 'Open Sans', verdana, arial, sans-serif; font-size: 12px; fill: rgb(42, 63, 95); fill-opacity: 1; white-space: pre; opacity: 1;" transform="translate(0,122.36)">−8550</text></g></g><g class="overaxes-above"/></g></g><g class="polarlayer"/><g class="smithlayer"/><g class="ternarylayer"/><g class="geolayer"/><g class="funnelarealayer"/><g class="pielayer"/><g class="iciclelayer"/><g class="treemaplayer"/><g class="sunburstlayer"/><g class="glimages"/><defs id="topdefs-700794"><g class="clips"/></defs><g class="layer-above"><g class="imagelayer"/><g class="shapelayer"/></g><g class="infolayer"><g class="g-gtitle"><text class="gtitle" x="35" y="50" text-anchor="start" dy="0em" style="font-family: 'Open Sans', verdana, arial, sans-serif; font-size: 17px; fill: rgb(42, 63, 95); opacity: 1; font-weight: normal; white-space: pre;">Worst Fitness per Generation</text></g><g class="g-xtitle"><text class="xtitle" x="350" y="460.8" text-anchor="middle" style="font-family: 'Open Sans', verdana, arial, sans-serif; font-size: 14px; fill: rgb(42, 63, 95); opacity: 1; font-weight: normal; white-space: pre;">Generation</text></g><g class="g-ytitle"><text class="ytitle" transform="rotate(-90,20.496875000000003,260)" x="20.496875000000003" y="260" text-anchor="middle" style="font-family: 'Open Sans', verdana, arial, sans-serif; font-size: 14px; fill: rgb(42, 63, 95); opacity: 1; font-weight: normal; white-space: pre;">Fitness</text></g></g></svg>