<svg class="main-svg" xmlns="http://www.w3.org/2000/svg" xmlns:xlink="http://www.w3.org/1999/xlink" width="700" height="500" style="" viewBox="0 0 700 500"><rect x="0" y="0" width="700" height="500" style="fill: rgb(255, 255, 255); fill-opacity: 1;"/><defs id="defs-58a475"><g class="clips"><clipPath id="clip58a475xyplot" class="plotclip"><rect width="514" height="320"/></clipPath><clipPath class="axesclip" id="clip58a475x"><rect x="80" y="0" width="514" height="500"/></clipPath><clipPath class="axesclip" id="clip58a475y"><rect x="0" y="100" width="700" height="320"/></clipPath><clipPath class="axesclip" id="clip58a475xy"><rect x="80" y="100" width="514" height="320"/></clipPath></g><g class="gradients"/><g class="patterns"/></defs><g class="bglayer"><rect class="bg" x="80" y="100" width="514" height="320" style="fill: rgb(229, 236, 246); fill-opacity: 1; stroke-width: 0;"/></g><g class="layer-below"><g class="imagelayer"/><g class="shapelayer"/></g><g class="cartesianlayer"><g class="subplot xy"><g class="layer-subplot"><g class="shapelayer"/><g class="imagelayer"/></g><g class="gridlayer"><g class="x"><path class="xgrid crisp" transform="translate(182.29000000000002,0)" d="M0,100v320" style="stroke: rgb(255, 255, 255); stroke-opacity: 1; stroke-width: 1px;"/><path class="xgrid crisp" transform="translate(285.09000000000003,0)" d="M0,100v320" style="stroke: rgb(255, 255, 255); stroke-opacity: 1; stroke-width: 1px;"/><path class="xgrid crisp" transform="translate(387.89,0)" d="M0,100v320" style="stroke: rgb(255, 255, 255); stroke-opacity: 1; stroke-width: 1px;"/><path class="xgrid crisp" transform="translate(490.69,0)" d="M0,100v320" style="stroke: rgb(255, 255, 255); stroke-opacity: 1; stroke-width: 1px;"/></g><g class="y"><path class="ygrid crisp" transform="translate(0,336.63)" d="M80,0h514" style="stroke: rgb(255, 255, 255); stroke-opacity: 1; stroke-width: 1px;"/><path class="ygrid crisp" transform="translate(0,162.89)" d="M80,0h514" style="stroke: rgb(255, 255, 255); stroke-opacity: 1; stroke-width: 1px;"/></g></g><g class="zerolinelayer"><path class="yzl zl crisp" transform="translate(0,249.76)" d="M80,0h514" style="stroke: rgb(255, 255, 255); stroke-opacity: 1; stroke-width: 2px;"/></g><path class="xlines-below"/><path class="ylines-below"/><g class="overlines-below"/><g class="xaxislayer-below"/><g class="yaxislayer-below"/><g class="overaxes-below"/><g class="plot" transform="translate(80,100)" clip-path="url(#clip58a475xyplot)"><g class="scatterlayer mlayer"><g class="trace scatter trace7f7444" style="stroke-miterlimit: 2; opacity: 1;"><g class="fills"/><g class="errorbars"/><g class="lines"><path class="js-line" d="M0,244.46L0.51,264.46L1.03,250.09L1.54,43.9L2.06,232.33L3.08,221.38L3.6,201.52L4.11,225.61L4.63,219.97L5.14,224.66L6.17,225.92L6.68,220.12L7.2,220.29L7.71,64.73L8.22,64.73L8.74,218.55L9.25,217.3L9.77,218.56L10.28,219.34L10.79,211.79L11.31,211.79L11.82,208.98L12.34,203.19L12.85,208.19L13.36,211.16L13.88,210.69L14.39,210.54L14.91,209.91L15.42,73.91L16.45,72.95L16.96,183.14L17.48,174L17.99,183.45L20.05,182.98L20.56,182.98L22.1,182.05L22.62,150.05L23.13,150.05L23.64,182.05L38.04,181.73L38.55,176.45L39.58,181.73L40.09,181.73L49.34,181.73L49.86,26.13L50.89,181.73L51.4,181.73L57.57,181.73L58.08,161.97L59.11,181.73L59.62,181.73L85.32,181.73L85.84,180.95L92.01,180.95L92.52,170.57L97.66,170.57L98.17,16.38L99.2,170.57L99.72,170.57L112.57,170.57L113.08,149.94L114.11,170.57L114.62,170.57L132.61,170.57L133.13,158.04L134.15,170.57L134.67,170.57L135.7,87.48L136.21,87.48L137.24,97.03L137.75,96.65L148.03,96.27L148.55,82.32L149.57,96.27L150.09,96.27L154.71,96.27L155.23,87.1L159.85,87.1L160.37,81.17L161.4,87.1L161.91,87.1L171.16,87.1L171.68,86.33L174.25,85.76L174.76,76.2L175.27,76.2L175.79,76.97L176.82,76.97L177.33,76.01L178.87,76.01L179.39,50.59L180.41,76.01L180.93,76.01L185.04,75.44L185.55,74.29L188.12,74.1L188.64,74.1L192.75,74.1L193.26,18.87L194.29,74.1L194.81,74.1L196.86,74.1L197.38,72.57L204.06,72L204.57,71.42L226.16,71.42L226.67,70.66L228.73,70.66L229.24,70.66L241.07,70.66L241.58,26.7L242.61,70.66L243.12,70.66L246.21,70.66L246.72,27.08L247.75,70.66L248.26,70.66L262.65,70.09L263.17,69.89L265.22,70.09L265.74,70.09L280.64,69.89L281.16,69.32L286.3,69.13L286.81,68.37L290.41,67.79L290.92,67.6L293.49,67.6L294.01,21.54L295.04,67.6L295.55,67.6L307.37,67.6L307.89,20.39L308.91,67.6L309.43,67.6L321.25,67.41L321.76,44.86L322.28,67.41L322.79,34.16L323.82,67.41L324.33,67.41L429.7,67.41L430.22,63.4L431.25,67.41L431.76,67.41L443.58,67.41L444.1,24.6L445.12,67.41L445.64,67.22L449.24,66.65L449.75,66.45L466.2,66.45L466.71,22.69L467.23,16L467.74,66.45L514,66.45" style="vector-effect: non-scaling-stroke; fill: none; stroke: rgb(99, 110, 250); stroke-opacity: 1; stroke-width: 2px; opacity: 1;"/></g><g class="points"/><g class="text"/></g><g class="trace scatter trace47aa79" style="stroke-miterlimit: 2; opacity: 1;"><g class="fills"/><g class="errorbars"/><g class="lines"><path class="js-line" d="M0,303.05L0.51,302.27L1.03,302.9L2.57,303.05L3.08,301.79L7.2,301.79L7.71,301.48L8.74,301.79L9.25,303.53L9.77,302.42L10.28,303.37L10.79,302.27L11.31,303.37L11.82,303.06L12.34,301.79L12.85,303.37L13.36,302.42L13.88,303.21L14.39,301.79L14.91,304L15.42,301.8L17.48,301.79L17.99,303.21L18.5,301.79L19.02,302.43L19.53,301.79L24.67,302.11L25.19,302.58L26.21,301.64L26.73,301.79L27.24,301.79L27.76,302.74L28.78,301.79L29.3,301.79L29.81,303.68L30.33,301.95L30.84,302.74L31.35,301.63L32.9,302.58L33.41,301.79L34.44,302.42L34.95,301.79L36.49,301.79L37.01,303.21L38.04,301.79L38.55,303.53L39.58,301.79L40.09,301.79L41.12,301.64L41.63,302.74L44.2,301.64L44.72,303.68L45.23,301.79L45.75,302.27L46.26,301.79L48.32,301.64L48.83,302.89L49.86,301.63L50.37,302.74L51.4,301.79L51.91,301.79L53.97,301.79L54.48,302.74L55.51,301.79L56.03,301.79L56.54,302.74L57.05,301.79L58.6,301.48L59.11,302.74L60.14,301.79L60.65,301.79L61.17,302.58L61.68,301.79L62.71,301.48L63.22,301.79L63.74,303.53L64.25,301.79L64.76,303.68L65.28,301.79L67.33,301.79L67.85,302.58L69.39,301.79L69.9,301.79L70.42,303.37L70.93,301.79L71.45,302.74L71.96,301.79L72.47,302.74L72.99,301.79L73.5,303.84L74.02,301.79L74.53,299.75L75.04,302.42L76.07,301.79L76.59,303.68L77.1,301.48L77.61,301.79L78.13,301.64L78.64,302.42L79.16,299.91L79.67,303.53L80.18,301.79L80.7,303.37L81.21,301.79L81.73,302.42L82.24,302.11L83.78,301.79L84.3,303.68L84.81,301.79L85.32,302.74L85.84,301.64L86.35,302.74L86.87,301.95L87.38,301.79L87.89,303.05L88.41,303.53L88.92,302.42L89.95,301.79L90.46,301.79L90.98,302.9L91.49,301.64L92.52,301.79L93.03,303.06L94.06,301.79L94.58,301.64L96.63,302.11L97.15,301.33L98.17,303.21L98.69,301.79L100.74,301.95L101.26,302.9L101.77,301.48L102.29,301.79L102.8,301.79L103.31,301.63L103.83,303.05L104.86,301.48L105.37,301.48L106.91,301.79L107.43,301.79L110,301.79L110.51,303.21L111.54,301.17L112.05,303.37L113.08,301.79L113.59,301.79L114.11,301.01L114.62,302.42L115.14,300.86L115.65,301.79L116.68,301.79L117.19,303.05L119.25,301.79L119.76,301.79L120.28,301.79L120.79,303.21L121.3,303.53L121.82,301.79L124.39,302.27L124.9,301.64L125.93,301.79L126.44,303.53L127.99,301.79L128.5,303.37L129.01,303.05L129.53,301.79L130.56,301.79L131.07,302.74L132.1,301.79L132.61,302.11L133.64,302.58L134.15,303.21L135.18,301.79L135.7,301.79L137.75,301.79L138.27,302.42L138.78,301.79L139.29,302.9L139.81,301.79L140.32,303.05L141.35,301.79L141.86,303.21L142.89,301.79L143.41,301.79L146.49,301.79L147,302.74L148.03,301.79L148.55,303.05L150.09,301.96L150.6,301.79L151.63,301.64L152.14,301.79L157.28,301.79L157.8,302.9L159.34,301.33L159.85,301.79L161.4,301.8L161.91,302.89L163.97,301.79L164.48,301.79L165.51,302.58L166.02,301.48L166.54,302.27L167.05,301.79L167.56,301.79L170.13,301.79L170.65,303.84L172.19,301.95L172.7,301.79L173.22,303.37L173.73,302.89L174.25,301.79L179.39,301.79L179.9,301.48L180.93,302.58L181.44,301.79L181.96,301.79L182.47,303.05L183.5,302.58L184.01,301.79L185.55,302.42L186.07,303.68L186.58,301.79L187.1,303.06L189.15,301.79L189.67,301.79L190.18,302.74L190.69,301.17L192.24,302.11L192.75,301.79L193.26,303.84L193.78,301.79L194.29,301.79L194.81,303.21L195.83,301.95L196.35,301.79L196.86,301.48L197.38,303.68L198.4,301.79L198.92,301.79L199.43,302.58L199.95,301.64L200.46,301.8L200.97,302.89L201.49,301.79L202,302.74L202.52,302.74L203.03,301.79L205.6,301.79L206.11,301.79L209.2,301.79L209.71,301.64L210.23,303.53L210.74,301.79L211.25,303.53L211.77,301.79L215.88,301.79L216.39,303.21L217.94,301.79L218.45,301.79L221.53,301.48L222.05,302.9L222.56,301.79L223.08,302.9L223.59,302.9L224.1,301.79L225.65,301.64L226.16,303.05L226.67,301.79L227.19,303.53L228.22,301.79L228.73,301.79L235.93,301.79L236.44,302.74L237.47,301.79L237.98,302.42L238.5,303.05L239.01,301.95L239.52,302.9L240.04,301.64L240.55,302.58L241.07,301.79L241.58,301.79L242.09,303.37L243.12,301.64L243.64,301.79L244.15,303.84L244.66,303.37L245.18,300.85L245.69,302.11L246.21,301.79L246.72,301.79L247.23,303.37L247.75,301.79L250.83,302.42L251.35,301.79L252.37,302.74L252.89,301.79L253.4,301.79L253.92,303.05L255.46,301.79L255.97,302.74L256.49,303.21L257,301.95L258.03,301.79L258.54,302.74L259.06,301.79L259.57,303.05L260.6,301.64L261.11,302.74L262.14,301.79L262.65,301.79L266.77,301.79L267.28,303.21L268.31,301.79L268.82,301.79L273.45,301.64L273.96,303.05L275.5,301.64L276.02,301.79L277.56,301.79L278.07,303.84L279.62,301.79L280.13,301.79L282.19,301.79L282.7,301.64L283.21,301.8L283.73,302.75L286.3,301.79L286.81,302.9L287.84,301.79L288.35,303.84L289.9,301.64L290.41,301.64L290.92,302.27L291.44,301.79L291.95,301.79L292.47,301.79L292.98,303.37L294.01,301.79L294.52,304L295.55,301.79L296.06,301.79L298.12,301.79L298.63,303.05L299.15,301.33L299.66,301.79L300.18,301.79L300.69,303.84L301.2,301.79L302.23,301.79L302.75,303.53L303.77,301.79L304.29,301.79L305.32,301.95L305.83,303.21L306.86,301.79L307.37,301.79L308.4,301.79L308.91,302.9L309.94,301.63L310.46,302.89L310.97,303.68L311.48,302.74L312.51,301.79L313.03,301.79L314.05,303.05L314.57,301.79L315.08,301.33L315.6,303.37L316.62,301.64L317.14,301.79L317.65,303.53L318.17,301.79L321.25,301.63L321.76,303.05L322.79,301.79L323.31,301.79L326.9,301.79L327.42,302.74L328.96,301.79L329.47,302.42L329.99,301.48L330.5,301.79L331.02,301.79L338.21,301.79L338.73,303.37L339.24,301.79L339.75,302.74L340.27,302.42L340.78,303.53L341.3,303.37L341.81,301.79L343.87,301.79L344.38,301.48L346.44,301.95L346.95,301.79L348.49,301.79L349.01,302.58L349.52,303.21L350.03,301.64L353.12,301.79L353.63,301.79L354.15,301.79L354.66,302.58L355.69,301.64L356.2,301.64L358.26,301.48L358.77,302.42L359.29,301.64L359.8,302.11L360.31,301.64L360.83,303.21L361.34,301.79L363.4,301.79L363.91,301.01L364.94,301.79L365.45,301.79L365.97,303.05L366.48,302.74L367,301.79L369.05,301.79L369.57,303.06L370.59,301.79L371.11,301.79L371.62,302.11L372.14,301.33L374.19,302.89L374.71,301.79L379.33,301.64L379.85,302.44L381.39,301.79L381.9,303.21L382.93,301.79L383.44,302.58L384.47,301.79L384.99,302.27L386.53,301.79L387.04,301.79L387.56,302.9L388.07,301.79L389.1,301.79L389.61,303.37L390.13,301.79L390.64,303.06L392.18,301.79L392.7,301.79L393.72,303.05L394.24,302.42L394.75,301.79L395.27,303.05L397.32,301.79L397.84,301.79L399.38,301.79L399.89,302.9L400.92,301.79L401.43,301.79L402.46,301.79L402.98,302.74L403.49,301.97L404,303.21L405.03,301.79L405.55,302.58L406.57,302.11L407.09,301.79L408.63,301.79L409.14,303.37L409.66,301.79L410.17,302.58L410.69,301.48L413.77,301.79L414.28,301.79L416.85,301.79L417.37,301.79L418.4,301.95L418.91,302.58L419.42,301.17L419.94,301.79L420.45,302.74L420.97,301.79L421.48,302.74L423.02,299.43L423.54,301.48L425.08,301.79L425.59,303.22L426.62,301.79L427.13,301.64L429.7,301.79L430.22,301.64L433.3,301.79L433.82,302.9L434.33,302.11L434.84,303.21L435.87,301.79L436.39,303.84L437.41,301.79L437.93,302.27L439.47,301.79L439.98,303.21L441.01,301.64L441.53,301.64L443.07,301.79L443.58,302.91L446.67,301.64L447.18,301.79L448.21,302.58L448.72,301.79L449.24,303.69L449.75,302.74L450.26,303.05L451.29,301.79L451.81,301.79L452.83,301.79L453.35,301.79L453.86,301.79L454.38,303.05L454.89,301.79L455.4,302.42L455.92,301.79L456.43,302.74L456.95,301.79L458.49,301.79L459,301.33L459.52,302.74L460.03,301.79L460.54,302.74L461.06,301.64L462.09,301.79L462.6,301.79L463.11,303.05L463.63,302.27L464.66,301.79L465.17,303.21L465.68,303.37L466.2,301.79L466.71,302.58L467.23,301.79L469.28,301.79L469.8,302.58L470.82,301.95L471.34,301.79L471.85,301.79L472.37,304L472.88,301.95L473.39,302.58L473.91,302.58L474.94,301.79L475.45,301.79L479.05,301.95L479.56,302.9L481.62,301.79L482.13,301.79L483.67,301.79L484.19,303.69L484.7,303.53L485.22,301.79L485.73,301.79L486.24,302.74L486.76,301.79L487.27,302.11L487.79,301.79L488.81,302.27L489.33,301.48L490.36,302.74L490.87,301.79L491.9,301.79L492.41,301.64L494.47,301.79L494.98,298.18L495.5,303.53L496.01,302.11L496.52,301.79L498.07,302.9L498.58,301.79L500.64,301.64L501.15,302.42L501.66,303.37L502.18,301.79L504.75,301.79L505.26,303.84L506.8,301.64L507.32,301.64L507.83,303.05L508.35,301.01L509.37,301.79L509.89,301.79L512.46,301.48L512.97,302.58L514,301.79" style="vector-effect: non-scaling-stroke; fill: none; stroke: rgb(239, 85, 59); stroke-opacity: 1; stroke-width: 2px; opacity: 1;"/></g><g class="points"/><g class="text"/></g></g></g><g class="overplot"/><path class="xlines-above crisp" d="M0,0" style="fill: none;"/><path class="ylines-above crisp" d="M0,0" style="fill: none;"/><g class="overlines-above"/><g class="xaxislayer-above"><g class="xtick"><text text-anchor="middle" x="0" y="433" transform="translate(182.29000000000002,0)" style="font-family: 'Open Sans', verdana, arial, sans-serif; font-size: 12px; fill: rgb(42, 63, 95); fill-opacity: 1; white-space: pre; opacity: 1;">200</text></g><g class="xtick"><text text-anchor="middle" x="0" y="433" style="font-family: 'Open Sans', verdana, arial, sans-serif; font-size: 12px; fill: rgb(42, 63, 95); fill-opacity: 1; white-space: pre; opacity: 1;" transform="translate(285.09000000000003,0)">400</text></g><g class="xtick"><text text-anchor="middle" x="0" y="433" style="font-family: 'Open Sans', verdana, arial, sans-serif; font-size: 12px; fill: rgb(42, 63, 95); fill-opacity: 1; white-space: pre; opacity: 1;" transform="translate(387.89,0)">600</text></g><g class="xtick"><text text-anchor="middle" x="0" y="433" style="font-family: 'Open Sans', verdana, arial, sans-serif; font-size: 12px; fill: rgb(42, 63, 95); fill-opacity: 1; white-space: pre; opacity: 1;" transform="translate(490.69,0)">800</text></g><g class="xtick"><text text-anchor="middle" x="0" y="433" style="font-family: 'Open Sans', verdana, arial, sans-serif; font-size: 12px; fill: rgb(42, 63, 95); fill-opacity: 1; white-space: pre; opacity: 1;" transform="translate(593.49,0)">1000</text></g></g><g class="yaxislayer-above"><g class="ytick"><text text-anchor="end" x="79" y="4.199999999999999" transform="translate(0,336.63)" style="font-family: 'Open Sans', verdana, arial, sans-serif; font-size: 12px; fill: rgb(42, 63, 95); fill-opacity: 1; white-space: pre; opacity: 1;">−5k</text></g><g class="ytick"><text text-anchor="end" x="79" y="4.199999999999999" style="font-family: 'Open Sans', verdana, arial, sans-serif; font-size: 12px; fill: rgb(42, 63, 95); fill-opacity: 1; white-space: pre; opacity: 1;" transform="translate(0,249.76)">0</text></g><g class="ytick"><text text-anchor="end" x="79" y="4.199999999999999" style="font-family: 'Open Sans', verdana, arial, sans-serif; font-size: 12px; fill: rgb(42, 63, 95); fill-opacity: 1; white-space: pre; opacity: 1;" transform="translate(0,162.89)">5k</text></g></g><g class="overaxes-above"/></g></g><g class="polarlayer"/><g class="smithlayer"/><g class="ternarylayer"/><g class="geolayer"/><g class="funnelarealayer"/><g class="pielayer"/><g class="iciclelayer"/><g class="treemaplayer"/><g class="sunburstlayer"/><g class="glimages"/><defs id="topdefs-58a475"><g class="clips"/><clipPath id="legend58a475"><rect width="84" height="67" x="0" y="0"/></clipPath></defs><g class="layer-above"><g class="imagelayer"/><g class="shapelayer"/></g><g class="infolayer"><g class="legend" pointer-events="all" transform="translate(604.28,100)"><rect class="bg" shape-rendering="crispEdges" style="stroke: rgb(68, 68, 68); stroke-opacity: 1; fill: rgb(255, 255, 255); fill-opacity: 1; stroke-width: 0px;" width="84" height="67" x="0" y="0"/><g class="scrollbox" transform="" clip-path="url(#legend58a475)"><text class="legendtitletext" text-anchor="start" x="2" y="18.2" style="font-family: 'Open Sans', verdana, arial, sans-serif; font-size: 14px; fill: rgb(42, 63, 95); fill-opacity: 1; white-space: pre;">Fitness Type</text><g class="groups"><g class="traces" transform="translate(0,32.7)" style="opacity: 1;"><text class="legendtext" text-anchor="start" x="40" y="4.680000000000001" style="font-family: 'Open Sans', verdana, arial, sans-serif; font-size: 12px; fill: rgb(42, 63, 95); fill-opacity: 1; white-space: pre;">Best</text><g class="layers" style="opacity: 1;"><g class="legendfill"/><g class="legendlines"><path class="js-line" d="M5,0h30" style="fill: none; stroke: rgb(99, 110, 250); stroke-opacity: 1; stroke-width: 2px;"/></g><g class="legendsymbols"><g class="legendpoints"/></g></g><rect class="legendtoggle" x="0" y="-9.5" width="71.78125" height="19" style="fill: rgb(0, 0, 0); fill-opacity: 0;"/></g><g class="traces" transform="translate(0,51.7)" style="opacity: 1;"><text class="legendtext" text-anchor="start" x="40" y="4.680000000000001" style="font-family: 'Open Sans', verdana, arial, sans-serif; font-size: 12px; fill: rgb(42, 63, 95); fill-opacity: 1; white-space: pre;">Worst</text><g class="layers" style="opacity: 1;"><g class="legendfill"/><g class="legendlines"><path class="js-line" d="M5,0h30" style="fill: none; stroke: rgb(239, 85, 59); stroke-opacity: 1; stroke-width: 2px;"/></g><g class="legendsymbols"><g class="legendpoints"/></g></g><rect class="legendtoggle" x="0" y="-9.5" width="71.78125" height="19" style="fill: rgb(0, 0, 0); fill-opacity: 0;"/></g></g></g><rect class="scrollbar" rx="20" ry="3" width="0" height="0" style="fill: rgb(128, 139, 164); fill-opacity: 1;" x="0" y="0"/></g><g class="g-gtitle"><text class="gtitle" x="35" y="50" text-anchor="start" dy="0em" style="font-family: 'Open Sans', verdana, arial, sans-serif; font-size: 17px; fill: rgb(42, 63, 95); opacity: 1; font-weight: normal; white-space: pre;">Best and Worst Fitness per Generation</text></g><g class="g-xtitle"><text class="xtitle" x="337" y="460.8" text-anchor="middle" style="font-family: 'Open Sans', verdana, arial, sans-serif; font-size: 14px; fill: rgb(42, 63, 95); opacity: 1; font-weight: normal; white-space: pre;">Generation</text></g><g class="g-ytitle"><text class="ytitle" transform="rotate(-90,34.5125,260)" x="34.5125" y="260" text-anchor="middle" style="font-family: 'Open Sans', verdana, arial, sans-serif; font-size: 14px; fill: rgb(42, 63, 95); opacity: 1; font-weight: normal; white-space: pre;">Fitness</text></g></g></svg>